<svg width="1985" height="995" xmlns="http://www.w3.org/2000/svg" xmlns:xlink="http://www.w3.org/1999/xlink" xml:space="preserve" overflow="hidden"><defs><clipPath id="clip0"><rect x="1645" y="435" width="1985" height="995"/></clipPath><clipPath id="clip1"><rect x="1645" y="435" width="1985" height="995"/></clipPath></defs><g clip-path="url(#clip0)" transform="translate(-1645 -435)"><g clip-path="url(#clip1)"><rect x="1646" y="438" width="1980" height="989" fill="#FFFFFF" fill-opacity="1"/><g><rect x="1870" y="488" width="1621" height="831" fill="#FFFFFF" fill-opacity="1"/></g><g><path d="M1869.5 487.5 1950.56 512.517 2031.57 535.518 2112.57 558.518 2193.57 580.519 2274.57 602.52 2355.58 622.521 2436.58 643.521 2517.58 662.522 2599.59 681.523 2680.59 700.523 2761.59 718.524 2842.59 736.524 2923.6 752.525 3004.6 769.525 3085.6 785.526 3166.6 801.526 3247.61 816.527 3328.61 830.527 3409.61 844.528 3490.5 858.528 3490.5 1318.5 3409.61 1318.5 3328.61 1318.5 3247.61 1318.5 3166.6 1318.5 3085.6 1318.5 3004.6 1318.5 2923.6 1318.5 2842.59 1318.5 2761.59 1318.5 2680.59 1318.5 2599.59 1318.5 2517.58 1318.5 2436.58 1318.5 2355.58 1318.5 2274.57 1318.5 2193.57 1318.5 2112.57 1318.5 2031.57 1318.5 1950.56 1318.5 1869.5 1318.5Z" stroke="#FFFFFF" stroke-width="4.58333" stroke-linecap="butt" stroke-linejoin="round" stroke-miterlimit="10" stroke-opacity="1" fill="#034E6E" fill-rule="nonzero" fill-opacity="1"/></g><g><path d="M1869.5 487.5 1950.56 527.518 2031.57 565.519 2112.57 601.52 2193.57 635.521 2274.57 667.522 2355.58 698.523 2436.58 728.524 2517.58 756.525 2599.59 783.526 2680.59 808.527 2761.59 832.528 2842.59 856.528 2923.6 878.529 3004.6 899.53 3085.6 919.53 3166.6 938.531 3247.61 956.532 3328.61 973.532 3409.61 989.533 3490.5 1005.53 3490.5 1318.5 3409.61 1318.5 3328.61 1318.5 3247.61 1318.5 3166.6 1318.5 3085.6 1318.5 3004.6 1318.5 2923.6 1318.5 2842.59 1318.5 2761.59 1318.5 2680.59 1318.5 2599.59 1318.5 2517.58 1318.5 2436.58 1318.5 2355.58 1318.5 2274.57 1318.5 2193.57 1318.5 2112.57 1318.5 2031.57 1318.5 1950.56 1318.5 1869.5 1318.5Z" stroke="#FFFFFF" stroke-width="4.58333" stroke-linecap="butt" stroke-linejoin="round" stroke-miterlimit="10" stroke-opacity="1" fill="#6EA1B6" fill-rule="nonzero" fill-opacity="1"/></g><g><path d="M1869.5 487.5 1950.56 549.518 2031.57 606.52 2112.57 659.522 2193.57 708.523 2274.57 753.525 2355.58 795.526 2436.58 833.528 2517.58 869.529 2599.59 903.53 2680.59 933.531 2761.59 962.532 2842.59 988.533 2923.6 1013.53 3004.6 1035.53 3085.6 1056.53 3166.6 1076.54 3247.61 1094.54 3328.61 1110.54 3409.61 1126.54 3490.5 1140.54 3490.5 1318.5 3409.61 1318.5 3328.61 1318.5 3247.61 1318.5 3166.6 1318.5 3085.6 1318.5 3004.6 1318.5 2923.6 1318.5 2842.59 1318.5 2761.59 1318.5 2680.59 1318.5 2599.59 1318.5 2517.58 1318.5 2436.58 1318.5 2355.58 1318.5 2274.57 1318.5 2193.57 1318.5 2112.57 1318.5 2031.57 1318.5 1950.56 1318.5 1869.5 1318.5Z" stroke="#FFFFFF" stroke-width="4.58333" stroke-linecap="butt" stroke-linejoin="round" stroke-miterlimit="10" stroke-opacity="1" fill="#FFB700" fill-rule="nonzero" fill-opacity="1"/></g><g><path d="M0 0 0.000360892 831" stroke="#D9D9D9" stroke-width="2.29167" stroke-linecap="butt" stroke-linejoin="round" stroke-miterlimit="10" stroke-opacity="1" fill="none" fill-rule="evenodd" transform="matrix(1 0 0 -1 1870 1319)"/></g><g><path d="M1856 1319 1870 1319M1856 1236.04 1870 1236.04M1856 1153.04 1870 1153.04M1856 1070.04 1870 1070.04M1856 986.032 1870 986.032M1856 903.03 1870 903.03M1856 820.027 1870 820.027M1856 737.024 1870 737.024M1856 654.021 1870 654.021M1856 571.019 1870 571.019M1856 488 1870 488" stroke="#D9D9D9" stroke-width="2.29167" stroke-linecap="butt" stroke-linejoin="round" stroke-miterlimit="10" stroke-opacity="1" fill="none" fill-rule="nonzero"/></g><g><path d="M1869.5 1318.5 3490.5 1318.5" stroke="#D9D9D9" stroke-width="3.4375" stroke-linecap="butt" stroke-linejoin="round" stroke-miterlimit="10" stroke-opacity="1" fill="none" fill-rule="evenodd"/></g><g><path d="M1869.5 1318.5 1869.5 1332.5M1950.56 1318.5 1950.56 1332.5M2031.57 1318.5 2031.57 1332.5M2112.57 1318.5 2112.57 1332.5M2193.57 1318.5 2193.57 1332.5M2274.57 1318.5 2274.57 1332.5M2355.58 1318.5 2355.58 1332.5M2436.58 1318.5 2436.58 1332.5M2517.58 1318.5 2517.58 1332.5M2599.59 1318.5 2599.59 1332.5M2680.59 1318.5 2680.59 1332.5M2761.59 1318.5 2761.59 1332.5M2842.59 1318.5 2842.59 1332.5M2923.6 1318.5 2923.6 1332.5M3004.6 1318.5 3004.6 1332.5M3085.6 1318.5 3085.6 1332.5M3166.6 1318.5 3166.6 1332.5M3247.61 1318.5 3247.61 1332.5M3328.61 1318.5 3328.61 1332.5M3409.61 1318.5 3409.61 1332.5M3490.5 1318.5 3490.5 1332.5" stroke="#D9D9D9" stroke-width="3.4375" stroke-linecap="butt" stroke-linejoin="round" stroke-miterlimit="10" stroke-opacity="1" fill="none" fill-rule="nonzero"/></g><g><text fill="#595959" fill-opacity="1" font-family="Arial,Arial_MSFontService,sans-serif" font-style="normal" font-variant="normal" font-weight="400" font-stretch="normal" font-size="46" text-anchor="start" direction="ltr" writing-mode="lr-tb" unicode-bidi="normal" text-decoration="none" transform="matrix(1 0 0 1 1763.88 1333)">0%</text></g><g><text fill="#595959" fill-opacity="1" font-family="Arial,Arial_MSFontService,sans-serif" font-style="normal" font-variant="normal" font-weight="400" font-stretch="normal" font-size="46" text-anchor="start" direction="ltr" writing-mode="lr-tb" unicode-bidi="normal" text-decoration="none" transform="matrix(1 0 0 1 1738.39 1250)">10%</text></g><g><text fill="#595959" fill-opacity="1" font-family="Arial,Arial_MSFontService,sans-serif" font-style="normal" font-variant="normal" font-weight="400" font-stretch="normal" font-size="46" text-anchor="start" direction="ltr" writing-mode="lr-tb" unicode-bidi="normal" text-decoration="none" transform="matrix(1 0 0 1 1738.39 1167)">20%</text></g><g><text fill="#595959" fill-opacity="1" font-family="Arial,Arial_MSFontService,sans-serif" font-style="normal" font-variant="normal" font-weight="400" font-stretch="normal" font-size="46" text-anchor="start" direction="ltr" writing-mode="lr-tb" unicode-bidi="normal" text-decoration="none" transform="matrix(1 0 0 1 1738.39 1084)">30%</text></g><g><text fill="#595959" fill-opacity="1" font-family="Arial,Arial_MSFontService,sans-serif" font-style="normal" font-variant="normal" font-weight="400" font-stretch="normal" font-size="46" text-anchor="start" direction="ltr" writing-mode="lr-tb" unicode-bidi="normal" text-decoration="none" transform="matrix(1 0 0 1 1738.39 1001)">40%</text></g><g><text fill="#595959" fill-opacity="1" font-family="Arial,Arial_MSFontService,sans-serif" font-style="normal" font-variant="normal" font-weight="400" font-stretch="normal" font-size="46" text-anchor="start" direction="ltr" writing-mode="lr-tb" unicode-bidi="normal" text-decoration="none" transform="matrix(1 0 0 1 1738.39 918)">50%</text></g><g><text fill="#595959" fill-opacity="1" font-family="Arial,Arial_MSFontService,sans-serif" font-style="normal" font-variant="normal" font-weight="400" font-stretch="normal" font-size="46" text-anchor="start" direction="ltr" writing-mode="lr-tb" unicode-bidi="normal" text-decoration="none" transform="matrix(1 0 0 1 1738.39 834)">60%</text></g><g><text fill="#595959" fill-opacity="1" font-family="Arial,Arial_MSFontService,sans-serif" font-style="normal" font-variant="normal" font-weight="400" font-stretch="normal" font-size="46" text-anchor="start" direction="ltr" writing-mode="lr-tb" unicode-bidi="normal" text-decoration="none" transform="matrix(1 0 0 1 1738.39 751)">70%</text></g><g><text fill="#595959" fill-opacity="1" font-family="Arial,Arial_MSFontService,sans-serif" font-style="normal" font-variant="normal" font-weight="400" font-stretch="normal" font-size="46" text-anchor="start" direction="ltr" writing-mode="lr-tb" unicode-bidi="normal" text-decoration="none" transform="matrix(1 0 0 1 1738.39 668)">80%</text></g><g><text fill="#595959" fill-opacity="1" font-family="Arial,Arial_MSFontService,sans-serif" font-style="normal" font-variant="normal" font-weight="400" font-stretch="normal" font-size="46" text-anchor="start" direction="ltr" writing-mode="lr-tb" unicode-bidi="normal" text-decoration="none" transform="matrix(1 0 0 1 1738.39 585)">90%</text></g><g><text fill="#595959" fill-opacity="1" font-family="Arial,Arial_MSFontService,sans-serif" font-style="normal" font-variant="normal" font-weight="400" font-stretch="normal" font-size="46" text-anchor="start" direction="ltr" writing-mode="lr-tb" unicode-bidi="normal" text-decoration="none" transform="matrix(1 0 0 1 1712.91 502)">100%</text></g><g><text fill="#595959" fill-opacity="1" font-family="Arial,Arial_MSFontService,sans-serif" font-style="normal" font-variant="normal" font-weight="400" font-stretch="normal" font-size="46" text-anchor="start" direction="ltr" writing-mode="lr-tb" unicode-bidi="normal" text-decoration="none" transform="matrix(1 0 0 1 1856.81 1388)">0</text></g><g><text fill="#595959" fill-opacity="1" font-family="Arial,Arial_MSFontService,sans-serif" font-style="normal" font-variant="normal" font-weight="400" font-stretch="normal" font-size="46" text-anchor="start" direction="ltr" writing-mode="lr-tb" unicode-bidi="normal" text-decoration="none" transform="matrix(1 0 0 1 1937.87 1388)">1</text></g><g><text fill="#595959" fill-opacity="1" font-family="Arial,Arial_MSFontService,sans-serif" font-style="normal" font-variant="normal" font-weight="400" font-stretch="normal" font-size="46" text-anchor="start" direction="ltr" writing-mode="lr-tb" unicode-bidi="normal" text-decoration="none" transform="matrix(1 0 0 1 2018.93 1388)">2</text></g><g><text fill="#595959" fill-opacity="1" font-family="Arial,Arial_MSFontService,sans-serif" font-style="normal" font-variant="normal" font-weight="400" font-stretch="normal" font-size="46" text-anchor="start" direction="ltr" writing-mode="lr-tb" unicode-bidi="normal" text-decoration="none" transform="matrix(1 0 0 1 2099.99 1388)">3</text></g><g><text fill="#595959" fill-opacity="1" font-family="Arial,Arial_MSFontService,sans-serif" font-style="normal" font-variant="normal" font-weight="400" font-stretch="normal" font-size="46" text-anchor="start" direction="ltr" writing-mode="lr-tb" unicode-bidi="normal" text-decoration="none" transform="matrix(1 0 0 1 2181.05 1388)">4</text></g><g><text fill="#595959" fill-opacity="1" font-family="Arial,Arial_MSFontService,sans-serif" font-style="normal" font-variant="normal" font-weight="400" font-stretch="normal" font-size="46" text-anchor="start" direction="ltr" writing-mode="lr-tb" unicode-bidi="normal" text-decoration="none" transform="matrix(1 0 0 1 2262.11 1388)">5</text></g><g><text fill="#595959" fill-opacity="1" font-family="Arial,Arial_MSFontService,sans-serif" font-style="normal" font-variant="normal" font-weight="400" font-stretch="normal" font-size="46" text-anchor="start" direction="ltr" writing-mode="lr-tb" unicode-bidi="normal" text-decoration="none" transform="matrix(1 0 0 1 2343.17 1388)">6</text></g><g><text fill="#595959" fill-opacity="1" font-family="Arial,Arial_MSFontService,sans-serif" font-style="normal" font-variant="normal" font-weight="400" font-stretch="normal" font-size="46" text-anchor="start" direction="ltr" writing-mode="lr-tb" unicode-bidi="normal" text-decoration="none" transform="matrix(1 0 0 1 2424.23 1388)">7</text></g><g><text fill="#595959" fill-opacity="1" font-family="Arial,Arial_MSFontService,sans-serif" font-style="normal" font-variant="normal" font-weight="400" font-stretch="normal" font-size="46" text-anchor="start" direction="ltr" writing-mode="lr-tb" unicode-bidi="normal" text-decoration="none" transform="matrix(1 0 0 1 2505.29 1388)">8</text></g><g><text fill="#595959" fill-opacity="1" font-family="Arial,Arial_MSFontService,sans-serif" font-style="normal" font-variant="normal" font-weight="400" font-stretch="normal" font-size="46" text-anchor="start" direction="ltr" writing-mode="lr-tb" unicode-bidi="normal" text-decoration="none" transform="matrix(1 0 0 1 2586.35 1388)">9</text></g><g><text fill="#595959" fill-opacity="1" font-family="Arial,Arial_MSFontService,sans-serif" font-style="normal" font-variant="normal" font-weight="400" font-stretch="normal" font-size="46" text-anchor="start" direction="ltr" writing-mode="lr-tb" unicode-bidi="normal" text-decoration="none" transform="matrix(1 0 0 1 2654.67 1388)">10</text></g><g><text fill="#595959" fill-opacity="1" font-family="Arial,Arial_MSFontService,sans-serif" font-style="normal" font-variant="normal" font-weight="400" font-stretch="normal" font-size="46" text-anchor="start" direction="ltr" writing-mode="lr-tb" unicode-bidi="normal" text-decoration="none" transform="matrix(1 0 0 1 2735.73 1388)">11</text></g><g><text fill="#595959" fill-opacity="1" font-family="Arial,Arial_MSFontService,sans-serif" font-style="normal" font-variant="normal" font-weight="400" font-stretch="normal" font-size="46" text-anchor="start" direction="ltr" writing-mode="lr-tb" unicode-bidi="normal" text-decoration="none" transform="matrix(1 0 0 1 2816.79 1388)">12</text></g><g><text fill="#595959" fill-opacity="1" font-family="Arial,Arial_MSFontService,sans-serif" font-style="normal" font-variant="normal" font-weight="400" font-stretch="normal" font-size="46" text-anchor="start" direction="ltr" writing-mode="lr-tb" unicode-bidi="normal" text-decoration="none" transform="matrix(1 0 0 1 2897.85 1388)">13</text></g><g><text fill="#595959" fill-opacity="1" font-family="Arial,Arial_MSFontService,sans-serif" font-style="normal" font-variant="normal" font-weight="400" font-stretch="normal" font-size="46" text-anchor="start" direction="ltr" writing-mode="lr-tb" unicode-bidi="normal" text-decoration="none" transform="matrix(1 0 0 1 2978.91 1388)">14</text></g><g><text fill="#595959" fill-opacity="1" font-family="Arial,Arial_MSFontService,sans-serif" font-style="normal" font-variant="normal" font-weight="400" font-stretch="normal" font-size="46" text-anchor="start" direction="ltr" writing-mode="lr-tb" unicode-bidi="normal" text-decoration="none" transform="matrix(1 0 0 1 3059.97 1388)">15</text></g><g><text fill="#595959" fill-opacity="1" font-family="Arial,Arial_MSFontService,sans-serif" font-style="normal" font-variant="normal" font-weight="400" font-stretch="normal" font-size="46" text-anchor="start" direction="ltr" writing-mode="lr-tb" unicode-bidi="normal" text-decoration="none" transform="matrix(1 0 0 1 3141.03 1388)">16</text></g><g><text fill="#595959" fill-opacity="1" font-family="Arial,Arial_MSFontService,sans-serif" font-style="normal" font-variant="normal" font-weight="400" font-stretch="normal" font-size="46" text-anchor="start" direction="ltr" writing-mode="lr-tb" unicode-bidi="normal" text-decoration="none" transform="matrix(1 0 0 1 3222.09 1388)">17</text></g><g><text fill="#595959" fill-opacity="1" font-family="Arial,Arial_MSFontService,sans-serif" font-style="normal" font-variant="normal" font-weight="400" font-stretch="normal" font-size="46" text-anchor="start" direction="ltr" writing-mode="lr-tb" unicode-bidi="normal" text-decoration="none" transform="matrix(1 0 0 1 3303.15 1388)">18</text></g><g><text fill="#595959" fill-opacity="1" font-family="Arial,Arial_MSFontService,sans-serif" font-style="normal" font-variant="normal" font-weight="400" font-stretch="normal" font-size="46" text-anchor="start" direction="ltr" writing-mode="lr-tb" unicode-bidi="normal" text-decoration="none" transform="matrix(1 0 0 1 3384.21 1388)">19</text></g><g><text fill="#595959" fill-opacity="1" font-family="Arial,Arial_MSFontService,sans-serif" font-style="normal" font-variant="normal" font-weight="400" font-stretch="normal" font-size="46" text-anchor="start" direction="ltr" writing-mode="lr-tb" unicode-bidi="normal" text-decoration="none" transform="matrix(1 0 0 1 3465.27 1388)">20</text></g><g><rect x="3491.5" y="925.5" width="23" height="23.0001" stroke="#FFFFFF" stroke-width="4.58333" stroke-linecap="butt" stroke-linejoin="round" stroke-miterlimit="10" stroke-opacity="1" fill="#034E6E" fill-opacity="1"/></g><g><text fill="#034E6E" fill-opacity="1" font-family="Arial,Arial_MSFontService,sans-serif" font-style="italic" font-variant="normal" font-weight="400" font-stretch="normal" font-size="46" text-anchor="start" direction="ltr" writing-mode="lr-tb" unicode-bidi="normal" text-decoration="none" transform="matrix(1 0 0 1 3524.65 951)">3%</text></g><g><rect x="3491.5" y="1076.5" width="23" height="23" stroke="#FFFFFF" stroke-width="4.58333" stroke-linecap="butt" stroke-linejoin="round" stroke-miterlimit="10" stroke-opacity="1" fill="#6EA1B6" fill-opacity="1"/></g><g><text fill="#6EA1B6" fill-opacity="1" font-family="Arial,Arial_MSFontService,sans-serif" font-style="italic" font-variant="normal" font-weight="400" font-stretch="normal" font-size="46" text-anchor="start" direction="ltr" writing-mode="lr-tb" unicode-bidi="normal" text-decoration="none" transform="matrix(1 0 0 1 3524.65 1103)">5%</text></g><g><rect x="3491.5" y="1228.5" width="23" height="23" stroke="#FFFFFF" stroke-width="4.58333" stroke-linecap="butt" stroke-linejoin="round" stroke-miterlimit="10" stroke-opacity="1" fill="#FFB700" fill-opacity="1"/></g><g><text fill="#FFB700" fill-opacity="1" font-family="Arial,Arial_MSFontService,sans-serif" font-style="italic" font-variant="normal" font-weight="400" font-stretch="normal" font-size="46" text-anchor="start" direction="ltr" writing-mode="lr-tb" unicode-bidi="normal" text-decoration="none" transform="matrix(1 0 0 1 3524.65 1254)">8%</text></g></g></g></svg>