<svg width="1169" height="647" xmlns="http://www.w3.org/2000/svg" xmlns:xlink="http://www.w3.org/1999/xlink" xml:space="preserve" overflow="hidden"><defs><filter id="fx0" x="-10%" y="-10%" width="120%" height="120%" filterUnits="userSpaceOnUse" primitiveUnits="userSpaceOnUse"><feComponentTransfer color-interpolation-filters="sRGB"><feFuncR type="discrete" tableValues="0.000000 0.000000"/><feFuncG type="discrete" tableValues="0.000000 0.000000"/><feFuncB type="discrete" tableValues="0.000000 0.000000"/><feFuncA type="linear" slope="0.400000" intercept="0.000000"/></feComponentTransfer><feGaussianBlur stdDeviation="6.111111 6.111111"/></filter><filter id="fx1" x="-10%" y="-10%" width="120%" height="120%" filterUnits="userSpaceOnUse" primitiveUnits="userSpaceOnUse"><feComponentTransfer color-interpolation-filters="sRGB"><feFuncR type="discrete" tableValues="0.000000 0.000000"/><feFuncG type="discrete" tableValues="0.000000 0.000000"/><feFuncB type="discrete" tableValues="0.000000 0.000000"/><feFuncA type="linear" slope="0.400000" intercept="0.000000"/></feComponentTransfer><feGaussianBlur stdDeviation="6.111111 6.111111"/></filter><filter id="fx2" x="-10%" y="-10%" width="120%" height="120%" filterUnits="userSpaceOnUse" primitiveUnits="userSpaceOnUse"><feComponentTransfer color-interpolation-filters="sRGB"><feFuncR type="discrete" tableValues="0.000000 0.000000"/><feFuncG type="discrete" tableValues="0.000000 0.000000"/><feFuncB type="discrete" tableValues="0.000000 0.000000"/><feFuncA type="linear" slope="0.400000" intercept="0.000000"/></feComponentTransfer><feGaussianBlur stdDeviation="6.111111 6.111111"/></filter><linearGradient x1="1324.1" y1="1706.82" x2="719.208" y2="1113.39" gradientUnits="userSpaceOnUse" spreadMethod="reflect" id="fill3"><stop offset="0" stop-color="#64CEFB" stop-opacity="1"/><stop offset="0.1" stop-color="#64CEFB" stop-opacity="1"/><stop offset="0.4" stop-color="#B2E6FD" stop-opacity="1"/><stop offset="0.9" stop-color="#E2ECF0" stop-opacity="1"/><stop offset="1" stop-color="#E2ECF0" stop-opacity="1"/></linearGradient><linearGradient x1="446" y1="1166.5" x2="446" y2="1661.5" gradientUnits="userSpaceOnUse" spreadMethod="reflect" id="fill4"><stop offset="0" stop-color="#1E1C11" stop-opacity="1"/><stop offset="0.05" stop-color="#1E1C11" stop-opacity="1"/><stop offset="0.75" stop-color="#0D0D0D" stop-opacity="1"/><stop offset="1" stop-color="#0D0D0D" stop-opacity="1"/></linearGradient><linearGradient x1="446" y1="1449.84" x2="446" y2="1493.16" gradientUnits="userSpaceOnUse" spreadMethod="reflect" id="stroke5"><stop offset="0" stop-color="#EEECE1" stop-opacity="1"/><stop offset="0.05" stop-color="#EEECE1" stop-opacity="1"/><stop offset="0.75" stop-color="#DDD9C3" stop-opacity="1"/><stop offset="1" stop-color="#DDD9C3" stop-opacity="1"/></linearGradient><linearGradient x1="446" y1="1455" x2="446" y2="1488" gradientUnits="userSpaceOnUse" spreadMethod="reflect" id="fill6"><stop offset="0" stop-color="#DDD9C3" stop-opacity="1"/><stop offset="0.74" stop-color="#DDD9C3" stop-opacity="1"/><stop offset="1" stop-color="#DDD9C3" stop-opacity="1"/></linearGradient><clipPath id="clip7"><path d="M281 1489 281 1522 611 1522 611 1489ZM192 1090 1361 1090 1361 1737 192 1737Z" fill-rule="evenodd" clip-rule="evenodd"/></clipPath><clipPath id="clip8"><rect x="1.6665" y="1.8335" width="376.667" height="79.6666"/></clipPath><linearGradient x1="446" y1="1382.84" x2="446" y2="1426.16" gradientUnits="userSpaceOnUse" spreadMethod="reflect" id="stroke9"><stop offset="0" stop-color="#6EA1B6" stop-opacity="1"/><stop offset="0.05" stop-color="#6EA1B6" stop-opacity="1"/><stop offset="0.75" stop-color="#497D92" stop-opacity="1"/><stop offset="1" stop-color="#497D92" stop-opacity="1"/></linearGradient><linearGradient x1="446" y1="1388" x2="446" y2="1421" gradientUnits="userSpaceOnUse" spreadMethod="reflect" id="fill10"><stop offset="0" stop-color="#6EA1B6" stop-opacity="1"/><stop offset="0.75" stop-color="#497D92" stop-opacity="1"/><stop offset="1" stop-color="#497D92" stop-opacity="1"/></linearGradient><clipPath id="clip11"><path d="M281 1422 281 1455 611 1455 611 1422ZM192 1090 1361 1090 1361 1737 192 1737Z" fill-rule="evenodd" clip-rule="evenodd"/></clipPath><clipPath id="clip12"><rect x="1.6665" y="1.83337" width="376.667" height="79.6667"/></clipPath><clipPath id="clip13"><rect x="13.4357" y="1.66663" width="127.912" height="152.833"/></clipPath></defs><g transform="translate(-192 -1090)"><g><path d="M1002.72 1315.46C1008.43 1315.46 1014.9 1315.46 1022.12 1315.46 1029.34 1315.46 1036.99 1315.46 1045.05 1315.46 1053.12 1315.46 1061.01 1315.46 1068.74 1315.46 1076.47 1315.46 1083.61 1315.46 1090.16 1315.46 1096.71 1315.46 1102 1315.46 1106.04 1315.46 1107.38 1315.46 1108.39 1315.71 1109.06 1316.22 1109.73 1316.72 1110.32 1317.31 1110.82 1317.98 1111.33 1318.65 1111.58 1319.66 1111.58 1321 1111.58 1336.8 1111.58 1354.02 1111.58 1372.66 1111.58 1391.31 1111.58 1410.21 1111.58 1429.36 1111.58 1448.52 1111.58 1467.33 1111.58 1485.81 1111.58 1504.29 1111.58 1521.6 1111.58 1537.72 1111.58 1542.76 1111.58 1548.06 1111.58 1553.6 1111.58 1559.14 1111.58 1564.6 1111.58 1569.98 1111.58 1575.36 1111.58 1580.9 1111.58 1586.61 1100.49 1586.61 1090.16 1586.61 1080.58 1586.61 1071.01 1586.61 1060.51 1586.61 1049.08 1586.61 1047.4 1586.61 1046.06 1586.11 1045.05 1585.1 1044.04 1584.09 1043.54 1582.75 1043.54 1581.07 1043.54 1572 1043.54 1560.66 1043.54 1547.05 1043.54 1533.44 1043.54 1518.74 1043.54 1502.95 1043.54 1487.16 1043.54 1471.36 1043.54 1455.57 1043.54 1439.78 1043.54 1425 1043.54 1411.22 1043.54 1397.44 1043.54 1385.85 1043.54 1376.44L1040.01 1376.44C1038 1376.44 1035.73 1376.44 1033.21 1376.44 1030.69 1376.44 1028 1376.44 1025.14 1376.44 1022.29 1376.44 1019.43 1376.44 1016.58 1376.44 1013.72 1376.44 1010.95 1376.44 1008.26 1376.44 1006.58 1376.44 1005.24 1375.94 1004.23 1374.93 1003.22 1373.92 1002.72 1372.58 1002.72 1370.9 1002.72 1361.83 1002.72 1352.59 1002.72 1343.18 1002.72 1333.77 1002.72 1324.53 1002.72 1315.46ZM1174.17 1233.81C1184.58 1233.81 1195.08 1233.81 1205.67 1233.81 1216.25 1233.81 1226.58 1233.81 1236.66 1233.81 1237.67 1233.81 1238.59 1234.06 1239.43 1234.57 1240.27 1235.07 1240.95 1235.74 1241.45 1236.58 1241.95 1237.42 1242.21 1238.35 1242.21 1239.36 1242.21 1258.84 1242.21 1278.25 1242.21 1297.57L1242.21 1315.46 1327.38 1315.46C1329.4 1315.46 1330.91 1315.96 1331.92 1316.97 1332.93 1317.98 1333.43 1319.32 1333.43 1321 1333.43 1328.06 1333.43 1334.61 1333.43 1340.66 1333.43 1346.71 1333.43 1352.92 1333.43 1359.31 1333.43 1365.69 1333.43 1372.24 1333.43 1378.96L1242.21 1378.96 1242.21 1413.99C1242.21 1433.31 1242.21 1452.72 1242.21 1472.2 1242.21 1482.28 1243.21 1490.52 1245.23 1496.9 1247.25 1503.28 1250.27 1508.49 1254.3 1512.52 1258 1515.88 1262.62 1518.24 1268.16 1519.58 1273.71 1520.92 1280.51 1521.6 1288.57 1521.6 1292.94 1521.6 1297.23 1521.6 1301.43 1521.6 1305.63 1521.6 1309.91 1521.6 1314.28 1521.6 1318.65 1521.6 1323.01 1521.6 1327.38 1521.6L1333.43 1521.6C1333.43 1531.68 1333.43 1541.67 1333.43 1551.58 1333.43 1561.5 1333.43 1571.32 1333.43 1581.07 1333.43 1582.41 1332.93 1583.67 1331.92 1584.85 1330.91 1586.02 1329.57 1586.61 1327.89 1586.61 1324.53 1586.61 1321.08 1586.61 1317.55 1586.61 1314.03 1586.61 1310.5 1586.61 1306.97 1586.61 1303.44 1586.61 1300 1586.61 1296.64 1586.61 1293.28 1586.61 1289.75 1586.61 1286.05 1586.61 1268.58 1586.61 1252.96 1584.51 1239.18 1580.31 1225.41 1576.11 1213.65 1569.64 1203.9 1560.91 1194.16 1552.17 1186.77 1540.92 1181.73 1527.14 1176.69 1513.36 1174.17 1497.07 1174.17 1478.25 1174.17 1461.79 1174.17 1445.49 1174.17 1429.36 1174.17 1413.24 1174.17 1397.11 1174.17 1380.98L1174.17 1378.96 1138.89 1378.96C1138.21 1378.96 1137.54 1378.8 1136.87 1378.46 1136.2 1378.12 1135.53 1377.7 1134.85 1377.2 1134.18 1376.7 1133.68 1376.11 1133.34 1375.44 1133.01 1374.76 1132.84 1374.09 1132.84 1373.42 1132.84 1366.7 1132.84 1360.15 1132.84 1353.76 1132.84 1347.38 1132.84 1341.16 1132.84 1335.12 1132.84 1329.07 1132.84 1322.52 1132.84 1315.46L1174.17 1315.46 1174.17 1284.21C1174.17 1275.48 1174.17 1266.99 1174.17 1258.76 1174.17 1250.53 1174.17 1242.21 1174.17 1233.81ZM763.186 1208.61C771.586 1208.61 779.23 1208.61 786.118 1208.61 793.006 1208.61 799.726 1208.61 806.278 1208.61 812.83 1208.61 819.298 1208.61 825.682 1208.61 827.026 1208.61 828.034 1208.86 828.706 1209.37 829.378 1209.87 829.966 1210.46 830.47 1211.13 830.974 1211.8 831.226 1212.81 831.226 1214.16 831.226 1245.07 831.226 1276.06 831.226 1307.14 831.226 1338.22 831.226 1369.3 831.226 1400.38L831.226 1430.88 840.802 1430.88C843.154 1423.82 845.506 1417.44 847.858 1411.72 850.21 1406.01 852.73 1400.64 855.418 1395.6 858.106 1390.56 861.046 1385.85 864.238 1381.48 867.43 1377.12 871.042 1372.58 875.074 1367.88 879.442 1362.5 883.81 1357.29 888.178 1352.25 892.546 1347.21 897.334 1341.67 902.542 1335.62 907.75 1329.57 913.378 1322.85 919.426 1315.46L994.522 1315.46C995.53 1315.46 996.453 1315.63 997.294 1315.96 998.133 1316.3 998.721 1316.8 999.057 1317.48 999.393 1318.15 999.562 1318.99 999.562 1320 999.562 1321 999.393 1321.93 999.057 1322.77 998.721 1323.61 997.546 1325.04 995.53 1327.05 985.114 1338.81 974.782 1350.15 964.534 1361.07 954.286 1371.99 944.289 1382.91 934.546 1393.83 924.802 1404.75 915.142 1415.34 905.566 1425.58L899.697 1431.92 912.81 1449.34C919.825 1458.62 926.818 1467.84 933.79 1476.99 947.734 1495.3 961.677 1513.53 975.622 1531.68 989.565 1549.82 1003.59 1568.13 1017.71 1586.61 1010.31 1586.61 1003.17 1586.61 996.286 1586.61 989.398 1586.61 981.838 1586.61 973.606 1586.61 965.374 1586.61 955.378 1586.61 943.618 1586.61 939.586 1586.61 936.562 1586.11 934.546 1585.1 932.53 1584.09 930.514 1582.24 928.498 1579.56 927.154 1577.88 925.306 1575.27 922.954 1571.74 920.602 1568.22 917.83 1564.18 914.638 1559.65 911.446 1555.11 908.086 1550.32 904.558 1545.28 901.03 1540.24 897.586 1535.37 894.226 1530.67 889.858 1524.28 886.162 1518.32 883.138 1512.78 880.114 1507.23 877.594 1501.35 875.578 1495.14 873.562 1488.92 871.882 1482.12 870.538 1474.72L860.364 1474.72 849.118 1487.32C844.666 1492.36 840.151 1497.36 835.573 1502.32L831.226 1506.92 831.226 1586.61C823.834 1586.61 816.862 1586.61 810.31 1586.61 803.758 1586.61 797.038 1586.61 790.15 1586.61 783.262 1586.61 776.122 1586.61 768.73 1586.61 767.722 1586.61 766.798 1586.36 765.958 1585.86 765.118 1585.35 764.446 1584.76 763.942 1584.09 763.438 1583.42 763.186 1582.41 763.186 1581.07 763.186 1554.19 763.186 1527.31 763.186 1500.43 763.186 1473.55 763.186 1446.58 763.186 1419.54 763.186 1392.49 763.186 1365.52 763.186 1338.64 763.186 1311.76 763.186 1284.88 763.186 1258 763.186 1248.6 763.186 1239.69 763.186 1231.29 763.186 1222.89 763.186 1215.33 763.186 1208.61ZM1031.44 1186.44C1037.83 1186.44 1044.46 1186.44 1051.35 1186.44 1058.24 1186.44 1065.3 1186.44 1072.52 1186.44 1079.74 1186.44 1086.8 1186.44 1093.69 1186.44 1100.58 1186.44 1107.21 1186.44 1113.6 1186.44 1115.28 1186.44 1116.62 1186.94 1117.63 1187.95 1118.64 1188.96 1119.14 1190.3 1119.14 1191.98L1119.14 1257C1112.76 1257 1106.12 1257 1099.23 1257 1092.34 1257 1085.29 1257 1078.06 1257 1070.84 1257 1063.78 1257 1056.9 1257 1050.01 1257 1043.37 1257 1036.99 1257 1035.31 1257 1033.96 1256.49 1032.96 1255.48 1031.95 1254.48 1031.44 1253.13 1031.44 1251.45Z" fill="url(#fill3)" fill-rule="evenodd"/><text fill="#000000" fill-opacity="0" font-family="Arial,Arial_MSFontService,sans-serif" font-size="400.176" direction="ltr" writing-mode="lr-tb" x="763.186" y="1536.59">kit</text><path d="M198.5 1414C198.5 1277.31 309.309 1166.5 446 1166.5 582.69 1166.5 693.5 1277.31 693.5 1414 693.5 1550.69 582.69 1661.5 446 1661.5 309.309 1661.5 198.5 1550.69 198.5 1414Z" stroke="#0D0D0D" stroke-width="9.16667" stroke-linecap="butt" stroke-linejoin="round" stroke-miterlimit="10" stroke-opacity="1" fill="url(#fill4)" fill-rule="evenodd"/><path d="M281 1488 365.287 1455 526.713 1455 611 1488Z" stroke="url(#stroke5)" stroke-width="10.3125" stroke-linecap="butt" stroke-linejoin="round" stroke-miterlimit="10" fill="url(#fill6)" fill-rule="evenodd"/><g clip-path="url(#clip7)"><g clip-path="url(#clip8)" filter="url(#fx0)" transform="translate(256 1473)"><g><g><path d="M0 33 0 0 330 0 330 33Z" stroke="#C4BD97" stroke-width="10" stroke-linecap="butt" stroke-linejoin="round" stroke-miterlimit="10" stroke-opacity="1" fill="#C4BD97" fill-rule="evenodd" fill-opacity="1" transform="matrix(1 0 0 -1 24.9998 58.1667)"/></g></g></g></g><path d="M0 33 0 0 330 0 330 33Z" stroke="#C4BD97" stroke-width="10.3125" stroke-linecap="butt" stroke-linejoin="round" stroke-miterlimit="10" stroke-opacity="1" fill="#C4BD97" fill-rule="evenodd" fill-opacity="1" transform="matrix(1 0 0 -1 281 1522)"/><path d="M281 1421 365.287 1388 526.713 1388 611 1421Z" stroke="url(#stroke9)" stroke-width="10.3125" stroke-linecap="butt" stroke-linejoin="round" stroke-miterlimit="10" fill="url(#fill10)" fill-rule="evenodd"/><g clip-path="url(#clip11)"><g clip-path="url(#clip12)" filter="url(#fx1)" transform="translate(256 1406)"><g><g><path d="M0 33 0 0 330 0 330 33Z" stroke="#034E6E" stroke-width="10" stroke-linecap="butt" stroke-linejoin="round" stroke-miterlimit="10" stroke-opacity="1" fill="#034E6E" fill-rule="evenodd" fill-opacity="1" transform="matrix(1 0 0 -1 24.9998 58.1667)"/></g></g></g></g><path d="M0 33 0 0 330 0 330 33Z" stroke="#034E6E" stroke-width="10.3125" stroke-linecap="butt" stroke-linejoin="round" stroke-miterlimit="10" stroke-opacity="1" fill="#034E6E" fill-rule="evenodd" fill-opacity="1" transform="matrix(1 0 0 -1 281 1455)"/><g clip-path="url(#clip13)" filter="url(#fx2)" transform="translate(261 1286)"><g><g><g><g><g><path d="M70.3195 33.5282C70.1598 32.592 69.2719 31.9647 68.3375 32.1228L64.0814 32.8492C63.1461 33.0089 62.517 33.8959 62.6767 34.8311 62.8188 35.6691 63.5461 36.2605 64.3673 36.2605 64.4639 36.2605 64.5605 36.2525 64.6586 36.2358L68.9147 35.5103C69.85 35.3506 70.4792 34.4637 70.3195 33.5282Z" fill="#FFAE8B" fill-rule="nonzero" fill-opacity="1" transform="matrix(1 0 0 1.0087 31.9041 20.1666)"/><path d="M68.3103 41.5555 64.213 39.3296C63.3786 38.8768 62.3353 39.1856 61.8827 40.0192 61.4299 40.8527 61.7387 41.8958 62.5722 42.3495L66.6704 44.5745C66.931 44.7166 67.2118 44.7834 67.4892 44.7834 68.099 44.7834 68.6883 44.4588 68.9999 43.8849 69.4536 43.0514 69.1447 42.0081 68.3103 41.5555Z" fill="#FFAE8B" fill-rule="nonzero" fill-opacity="1" transform="matrix(1 0 0 1.0087 31.9041 20.1666)"/><path d="M5.68543 36.2358C5.78282 36.2525 5.88021 36.2605 5.97585 36.2605 6.79795 36.2605 7.5253 35.6691 7.66743 34.8311 7.82713 33.8959 7.19805 33.0089 6.26275 32.8492L2.00745 32.1228C1.07216 31.964 0.18425 32.592 0.0245667 33.5282-0.135117 34.4637 0.493966 35.3506 1.42925 35.5103Z" fill="#FFAE8B" fill-rule="nonzero" fill-opacity="1" transform="matrix(1 0 0 1.0087 31.9041 20.1666)"/><path d="M6.13115 39.3296 2.03377 41.5555C1.19938 42.0081 0.89142 43.0514 1.34415 43.8858 1.65474 44.4588 2.24522 44.7834 2.85499 44.7834 3.13225 44.7834 3.41301 44.7166 3.6736 44.5754L7.77186 42.3495C8.60536 41.8958 8.9142 40.8536 8.46147 40.0192 8.00785 39.1856 6.96553 38.8768 6.13115 39.3296Z" fill="#FFAE8B" fill-rule="nonzero" fill-opacity="1" transform="matrix(1 0 0 1.0087 31.9041 20.1666)"/><path d="M73.7966 37.13C74.0967 43.0653 81.7087 52.2831 80.8236 64.0427 80.032 74.5635 75.0731 87.3406 64.9219 93.8044 64.9623 94.3853 64.9841 94.9239 64.9841 95.4126 64.9841 101.815 61.6185 105.572 54.7819 107.584 54.7881 107.582 91.0925 99.6766 91.1012 60.9254 91.11 21.3967 73.4009 29.3291 73.7966 37.13Z" fill="#FFDCA7" fill-rule="nonzero" fill-opacity="1" transform="matrix(1 0 0 1.0087 31.9041 20.1666)"/><path d="M70.5283 89.0982C68.8727 90.8836 67.0056 92.4761 64.921 93.8035 64.9623 94.3844 64.9841 94.923 64.9841 95.4117 64.9841 101.815 61.6185 105.572 54.7819 107.584 54.7819 107.584 62.0889 105.992 70.1467 100.74 70.8293 99.2117 71.1687 97.4456 71.1687 95.4117 71.1687 93.7842 70.9311 91.6118 70.5283 89.0982Z" fill="#FFCF86" fill-rule="nonzero" fill-opacity="1" transform="matrix(1 0 0 1.0087 31.9041 20.1666)"/><path d="M43.7542 11.5042C43.7542 11.5042 48.5595-0.809824 52.677 0.0421143 56.8525 0.905458 56.0419 14.797 56.0419 14.797 56.0419 14.797 64.6665 28.0349 64.3875 35.6498 64.1086 43.2636 59.2136 48.3427 54.3695 49.2693 54.3695 49.2693 64.9841 84.5067 64.9841 95.4126 64.9841 106.318 55.2241 109.55 35.1725 109.55 15.1199 109.55 5.35993 106.318 5.35993 95.4126 5.35993 84.5067 15.9745 49.2693 15.9745 49.2693 11.1313 48.3427 6.23555 43.2636 5.95654 35.6498 5.67753 28.0349 14.3022 14.797 14.3022 14.797 14.3022 14.797 13.4915 0.905458 17.6669 0.0421143 21.7836-0.809824 26.59 11.5042 26.59 11.5042Z" fill="#FFE9C8" fill-rule="nonzero" fill-opacity="1" transform="matrix(1 0 0 1.0087 31.9041 20.1666)"/><path d="M35.1725 103.365C16.9168 103.365 7.19364 100.685 5.59682 91.9768 5.44503 93.284 5.35993 94.4457 5.35993 95.4126 5.35993 106.318 15.119 109.55 35.1716 109.55 55.2241 109.55 64.9841 106.317 64.9841 95.4126 64.9841 94.4457 64.899 93.284 64.7473 91.9768 63.1504 100.685 53.4272 103.365 35.1725 103.365Z" fill="#FFDCA7" fill-rule="nonzero" fill-opacity="1" transform="matrix(1 0 0 1.0087 31.9041 20.1666)"/><path d="M17.6669 0.0421143C13.4915 0.905458 14.3022 14.797 14.3022 14.797 14.3022 14.797 5.67753 28.0349 5.95654 35.6498 6.10395 39.6762 7.54284 42.9925 9.58189 45.3624 33.8309 39.9392 31.6962 11.5042 31.6962 11.5042L26.59 11.5042C26.59 11.5042 21.7836-0.809824 17.6669 0.0421143Z" fill="#FFAE8B" fill-rule="nonzero" fill-opacity="1" transform="matrix(1 0 0 1.0087 31.9041 20.1666)"/><path d="M52.677 0.0421143C56.8516 0.905458 56.0419 14.797 56.0419 14.797 56.0419 14.797 64.6665 28.0349 64.3875 35.6498 64.2402 39.6762 62.8013 42.9925 60.7621 45.3624 36.513 39.9392 38.6468 11.5042 38.6468 11.5042L43.7542 11.5042C43.7542 11.5042 48.5595-0.809824 52.677 0.0421143Z" fill="#FFAE8B" fill-rule="nonzero" fill-opacity="1" transform="matrix(1 0 0 1.0087 31.9041 20.1666)"/><path d="M20.7562 24.9993C18.8005 24.9993 17.2686 26.9015 17.2686 29.33 17.2686 31.7587 18.8005 33.6607 20.7562 33.6607 22.711 33.6607 24.243 31.7587 24.243 29.33 24.243 26.9015 22.711 24.9993 20.7562 24.9993Z" fill="#433F43" fill-rule="nonzero" fill-opacity="1" transform="matrix(1 0 0 1.0087 31.9041 20.1666)"/><path d="M49.5878 24.9993C47.633 24.9993 46.1011 26.9015 46.1011 29.33 46.1011 31.7587 47.633 33.6607 49.5878 33.6607 51.5434 33.6607 53.0755 31.7587 53.0755 29.33 53.0755 26.9015 51.5434 24.9993 49.5878 24.9993Z" fill="#433F43" fill-rule="nonzero" fill-opacity="1" transform="matrix(1 0 0 1.0087 31.9041 20.1666)"/><path d="M40.45 33.2598C40.45 32.6614 40.2191 31.2147 38.0853 30.7093 37.3843 30.5433 36.513 30.4723 35.1725 30.4723 33.83 30.4723 32.9597 30.5433 32.2596 30.7093 30.1249 31.2147 29.8942 32.6614 29.8942 33.2598 29.8942 34.8936 31.4481 36.4122 33.4545 36.9878L33.4545 40.8394C33.4545 41.788 34.2231 42.5575 35.1725 42.5575 36.1208 42.5575 36.8903 41.788 36.8903 40.8394L36.8903 36.9878C38.8961 36.4122 40.45 34.8936 40.45 33.2598Z" fill="#DD8858" fill-rule="nonzero" fill-opacity="1" transform="matrix(1 0 0 1.0087 31.9041 20.1666)"/><path d="M17.0791 68.8447C17.0791 68.8447 18.754 113.282 25.1493 113.282 31.5444 113.282 31.6962 73.221 31.6962 73.221" fill="#FFE9C8" fill-rule="nonzero" fill-opacity="1" transform="matrix(1 0 0 1.0087 31.9041 20.1666)"/><path d="M53.2651 68.8447C53.2651 68.8447 51.5902 113.282 45.1948 113.282 38.7995 113.282 38.6468 73.221 38.6468 73.221" fill="#FFE9C8" fill-rule="nonzero" fill-opacity="1" transform="matrix(1 0 0 1.0087 31.9041 20.1666)"/><path d="M25.1493 115C22.0161 115 20.4974 110.597 19.5253 106.761 18.5707 102.998 17.724 97.7798 17.0081 91.2504 15.7972 80.2077 15.3665 69.021 15.3621 68.9087 15.3261 67.9611 16.0657 67.1635 17.0142 67.1275 17.9618 67.0864 18.7602 67.8312 18.7961 68.7798 18.7997 68.8833 19.1989 79.2398 20.307 89.7877 20.9536 95.9443 21.7108 100.952 22.5576 104.673 23.7806 110.048 24.8607 111.272 25.1702 111.523 25.6363 111.177 27.8875 108.672 29.1869 92.1452 29.9344 82.638 29.9784 73.3079 29.9784 73.214 29.9818 72.2673 30.7504 71.5032 31.6962 71.5032L31.7032 71.5032C32.6517 71.5065 33.4177 72.2787 33.4143 73.2272 33.4143 73.3281 33.3669 83.4268 32.5334 93.3947 32.0395 99.2977 31.3681 104.02 30.5391 107.428 29.7484 110.679 28.3298 115 25.1493 115Z" fill="#FFDCA7" fill-rule="nonzero" fill-opacity="1" transform="matrix(1 0 0 1.0087 31.9041 20.1666)"/><path d="M45.1948 115C42.0144 115 40.5955 110.679 39.8042 107.429 38.9749 104.02 38.3047 99.2986 37.8108 93.3947 36.9773 83.4268 36.9299 73.3281 36.929 73.2272 36.9254 72.2787 37.6915 71.5065 38.6407 71.5032L38.6468 71.5032C39.5926 71.5032 40.3612 72.2673 40.3648 73.2149 40.3657 73.3079 40.4095 82.6546 41.1579 92.1619 42.4573 108.673 44.7079 111.177 45.1737 111.524 45.4835 111.272 46.5636 110.049 47.7866 104.673 48.6332 100.953 49.3906 95.9452 50.037 89.7877 51.1452 79.2398 51.5443 68.8833 51.5479 68.7798 51.5839 67.8312 52.3884 67.0882 53.33 67.1275 54.2774 67.1635 55.017 67.9611 54.982 68.9096 54.9777 69.021 54.5469 80.2077 53.336 91.2513 52.62 97.7798 51.7734 102.998 50.8188 106.761 49.8467 110.597 48.3279 115 45.1948 115Z" fill="#FFDCA7" fill-rule="nonzero" fill-opacity="1" transform="matrix(1 0 0 1.0087 31.9041 20.1666)"/></g></g></g></g></g></g><g><g><g><path d="M70.3195 33.5282C70.1598 32.592 69.2719 31.9647 68.3375 32.1228L64.0814 32.8492C63.1461 33.0089 62.517 33.8959 62.6767 34.8311 62.8188 35.6691 63.5461 36.2605 64.3673 36.2605 64.4639 36.2605 64.5605 36.2525 64.6586 36.2358L68.9147 35.5103C69.85 35.3506 70.4792 34.4637 70.3195 33.5282Z" fill="#FFAE8B" fill-rule="nonzero" fill-opacity="1" transform="matrix(1 0 0 1.0087 292.904 1297)"/><path d="M68.3103 41.5555 64.213 39.3296C63.3786 38.8768 62.3353 39.1856 61.8827 40.0192 61.4299 40.8527 61.7387 41.8958 62.5722 42.3495L66.6704 44.5745C66.931 44.7166 67.2118 44.7834 67.4892 44.7834 68.099 44.7834 68.6883 44.4588 68.9999 43.8849 69.4536 43.0514 69.1447 42.0081 68.3103 41.5555Z" fill="#FFAE8B" fill-rule="nonzero" fill-opacity="1" transform="matrix(1 0 0 1.0087 292.904 1297)"/><path d="M5.68543 36.2358C5.78282 36.2525 5.88021 36.2605 5.97585 36.2605 6.79795 36.2605 7.5253 35.6691 7.66743 34.8311 7.82713 33.8959 7.19805 33.0089 6.26275 32.8492L2.00745 32.1228C1.07216 31.964 0.18425 32.592 0.0245667 33.5282-0.135117 34.4637 0.493966 35.3506 1.42925 35.5103Z" fill="#FFAE8B" fill-rule="nonzero" fill-opacity="1" transform="matrix(1 0 0 1.0087 292.904 1297)"/><path d="M6.13115 39.3296 2.03377 41.5555C1.19938 42.0081 0.89142 43.0514 1.34415 43.8858 1.65474 44.4588 2.24522 44.7834 2.85499 44.7834 3.13225 44.7834 3.41301 44.7166 3.6736 44.5754L7.77186 42.3495C8.60536 41.8958 8.9142 40.8536 8.46147 40.0192 8.00785 39.1856 6.96553 38.8768 6.13115 39.3296Z" fill="#FFAE8B" fill-rule="nonzero" fill-opacity="1" transform="matrix(1 0 0 1.0087 292.904 1297)"/><path d="M73.7966 37.13C74.0967 43.0653 81.7087 52.2831 80.8236 64.0427 80.032 74.5635 75.0731 87.3406 64.9219 93.8044 64.9623 94.3853 64.9841 94.9239 64.9841 95.4126 64.9841 101.815 61.6185 105.572 54.7819 107.584 54.7881 107.582 91.0925 99.6766 91.1012 60.9254 91.11 21.3967 73.4009 29.3291 73.7966 37.13Z" fill="#FFDCA7" fill-rule="nonzero" fill-opacity="1" transform="matrix(1 0 0 1.0087 292.904 1297)"/><path d="M70.5283 89.0982C68.8727 90.8836 67.0056 92.4761 64.921 93.8035 64.9623 94.3844 64.9841 94.923 64.9841 95.4117 64.9841 101.815 61.6185 105.572 54.7819 107.584 54.7819 107.584 62.0889 105.992 70.1467 100.74 70.8293 99.2117 71.1687 97.4456 71.1687 95.4117 71.1687 93.7842 70.9311 91.6118 70.5283 89.0982Z" fill="#FFCF86" fill-rule="nonzero" fill-opacity="1" transform="matrix(1 0 0 1.0087 292.904 1297)"/><path d="M43.7542 11.5042C43.7542 11.5042 48.5595-0.809824 52.677 0.0421143 56.8525 0.905458 56.0419 14.797 56.0419 14.797 56.0419 14.797 64.6665 28.0349 64.3875 35.6498 64.1086 43.2636 59.2136 48.3427 54.3695 49.2693 54.3695 49.2693 64.9841 84.5067 64.9841 95.4126 64.9841 106.318 55.2241 109.55 35.1725 109.55 15.1199 109.55 5.35993 106.318 5.35993 95.4126 5.35993 84.5067 15.9745 49.2693 15.9745 49.2693 11.1313 48.3427 6.23555 43.2636 5.95654 35.6498 5.67753 28.0349 14.3022 14.797 14.3022 14.797 14.3022 14.797 13.4915 0.905458 17.6669 0.0421143 21.7836-0.809824 26.59 11.5042 26.59 11.5042Z" fill="#FFE9C8" fill-rule="nonzero" fill-opacity="1" transform="matrix(1 0 0 1.0087 292.904 1297)"/><path d="M35.1725 103.365C16.9168 103.365 7.19364 100.685 5.59682 91.9768 5.44503 93.284 5.35993 94.4457 5.35993 95.4126 5.35993 106.318 15.119 109.55 35.1716 109.55 55.2241 109.55 64.9841 106.317 64.9841 95.4126 64.9841 94.4457 64.899 93.284 64.7473 91.9768 63.1504 100.685 53.4272 103.365 35.1725 103.365Z" fill="#FFDCA7" fill-rule="nonzero" fill-opacity="1" transform="matrix(1 0 0 1.0087 292.904 1297)"/><path d="M17.6669 0.0421143C13.4915 0.905458 14.3022 14.797 14.3022 14.797 14.3022 14.797 5.67753 28.0349 5.95654 35.6498 6.10395 39.6762 7.54284 42.9925 9.58189 45.3624 33.8309 39.9392 31.6962 11.5042 31.6962 11.5042L26.59 11.5042C26.59 11.5042 21.7836-0.809824 17.6669 0.0421143Z" fill="#FFAE8B" fill-rule="nonzero" fill-opacity="1" transform="matrix(1 0 0 1.0087 292.904 1297)"/><path d="M52.677 0.0421143C56.8516 0.905458 56.0419 14.797 56.0419 14.797 56.0419 14.797 64.6665 28.0349 64.3875 35.6498 64.2402 39.6762 62.8013 42.9925 60.7621 45.3624 36.513 39.9392 38.6468 11.5042 38.6468 11.5042L43.7542 11.5042C43.7542 11.5042 48.5595-0.809824 52.677 0.0421143Z" fill="#FFAE8B" fill-rule="nonzero" fill-opacity="1" transform="matrix(1 0 0 1.0087 292.904 1297)"/><path d="M20.7562 24.9993C18.8005 24.9993 17.2686 26.9015 17.2686 29.33 17.2686 31.7587 18.8005 33.6607 20.7562 33.6607 22.711 33.6607 24.243 31.7587 24.243 29.33 24.243 26.9015 22.711 24.9993 20.7562 24.9993Z" fill="#433F43" fill-rule="nonzero" fill-opacity="1" transform="matrix(1 0 0 1.0087 292.904 1297)"/><path d="M49.5878 24.9993C47.633 24.9993 46.1011 26.9015 46.1011 29.33 46.1011 31.7587 47.633 33.6607 49.5878 33.6607 51.5434 33.6607 53.0755 31.7587 53.0755 29.33 53.0755 26.9015 51.5434 24.9993 49.5878 24.9993Z" fill="#433F43" fill-rule="nonzero" fill-opacity="1" transform="matrix(1 0 0 1.0087 292.904 1297)"/><path d="M40.45 33.2598C40.45 32.6614 40.2191 31.2147 38.0853 30.7093 37.3843 30.5433 36.513 30.4723 35.1725 30.4723 33.83 30.4723 32.9597 30.5433 32.2596 30.7093 30.1249 31.2147 29.8942 32.6614 29.8942 33.2598 29.8942 34.8936 31.4481 36.4122 33.4545 36.9878L33.4545 40.8394C33.4545 41.788 34.2231 42.5575 35.1725 42.5575 36.1208 42.5575 36.8903 41.788 36.8903 40.8394L36.8903 36.9878C38.8961 36.4122 40.45 34.8936 40.45 33.2598Z" fill="#DD8858" fill-rule="nonzero" fill-opacity="1" transform="matrix(1 0 0 1.0087 292.904 1297)"/><path d="M17.0791 68.8447C17.0791 68.8447 18.754 113.282 25.1493 113.282 31.5444 113.282 31.6962 73.221 31.6962 73.221" fill="#FFE9C8" fill-rule="nonzero" fill-opacity="1" transform="matrix(1 0 0 1.0087 292.904 1297)"/><path d="M53.2651 68.8447C53.2651 68.8447 51.5902 113.282 45.1948 113.282 38.7995 113.282 38.6468 73.221 38.6468 73.221" fill="#FFE9C8" fill-rule="nonzero" fill-opacity="1" transform="matrix(1 0 0 1.0087 292.904 1297)"/><path d="M25.1493 115C22.0161 115 20.4974 110.597 19.5253 106.761 18.5707 102.998 17.724 97.7798 17.0081 91.2504 15.7972 80.2077 15.3665 69.021 15.3621 68.9087 15.3261 67.9611 16.0657 67.1635 17.0142 67.1275 17.9618 67.0864 18.7602 67.8312 18.7961 68.7798 18.7997 68.8833 19.1989 79.2398 20.307 89.7877 20.9536 95.9443 21.7108 100.952 22.5576 104.673 23.7806 110.048 24.8607 111.272 25.1702 111.523 25.6363 111.177 27.8875 108.672 29.1869 92.1452 29.9344 82.638 29.9784 73.3079 29.9784 73.214 29.9818 72.2673 30.7504 71.5032 31.6962 71.5032L31.7032 71.5032C32.6517 71.5065 33.4177 72.2787 33.4143 73.2272 33.4143 73.3281 33.3669 83.4268 32.5334 93.3947 32.0395 99.2977 31.3681 104.02 30.5391 107.428 29.7484 110.679 28.3298 115 25.1493 115Z" fill="#FFDCA7" fill-rule="nonzero" fill-opacity="1" transform="matrix(1 0 0 1.0087 292.904 1297)"/><path d="M45.1948 115C42.0144 115 40.5955 110.679 39.8042 107.429 38.9749 104.02 38.3047 99.2986 37.8108 93.3947 36.9773 83.4268 36.9299 73.3281 36.929 73.2272 36.9254 72.2787 37.6915 71.5065 38.6407 71.5032L38.6468 71.5032C39.5926 71.5032 40.3612 72.2673 40.3648 73.2149 40.3657 73.3079 40.4095 82.6546 41.1579 92.1619 42.4573 108.673 44.7079 111.177 45.1737 111.524 45.4835 111.272 46.5636 110.049 47.7866 104.673 48.6332 100.953 49.3906 95.9452 50.037 89.7877 51.1452 79.2398 51.5443 68.8833 51.5479 68.7798 51.5839 67.8312 52.3884 67.0882 53.33 67.1275 54.2774 67.1635 55.017 67.9611 54.982 68.9096 54.9777 69.021 54.5469 80.2077 53.336 91.2513 52.62 97.7798 51.7734 102.998 50.8188 106.761 49.8467 110.597 48.3279 115 45.1948 115Z" fill="#FFDCA7" fill-rule="nonzero" fill-opacity="1" transform="matrix(1 0 0 1.0087 292.904 1297)"/></g></g></g><path d="M495 1365.91 494.74 1365.52 494.977 1366 494.847 1365.61 494.847 1365.61C494.493 1364.55 493.343 1363.97 492.28 1364.33 491.216 1364.68 490.641 1365.83 490.995 1366.89 490.995 1366.89 490.995 1366.89 490.996 1366.89L491.126 1367.28 491.362 1367.77 491.622 1368.16 491.622 1368.16C492.244 1369.09 493.504 1369.34 494.437 1368.72 495.37 1368.1 495.622 1366.84 495 1365.9Z" fill="#000000" fill-rule="nonzero" fill-opacity="1"/></g></g></svg>