<svg width="1169" height="647" xmlns="http://www.w3.org/2000/svg" xmlns:xlink="http://www.w3.org/1999/xlink" xml:space="preserve" overflow="hidden"><defs><filter id="fx0" x="-10%" y="-10%" width="120%" height="120%" filterUnits="userSpaceOnUse" primitiveUnits="userSpaceOnUse"><feComponentTransfer color-interpolation-filters="sRGB"><feFuncR type="discrete" tableValues="0.000000 0.000000"/><feFuncG type="discrete" tableValues="0.000000 0.000000"/><feFuncB type="discrete" tableValues="0.000000 0.000000"/><feFuncA type="linear" slope="0.400000" intercept="0.000000"/></feComponentTransfer><feGaussianBlur stdDeviation="6.111111 6.111111"/></filter><filter id="fx1" x="-10%" y="-10%" width="120%" height="120%" filterUnits="userSpaceOnUse" primitiveUnits="userSpaceOnUse"><feComponentTransfer color-interpolation-filters="sRGB"><feFuncR type="discrete" tableValues="0.000000 0.000000"/><feFuncG type="discrete" tableValues="0.000000 0.000000"/><feFuncB type="discrete" tableValues="0.000000 0.000000"/><feFuncA type="linear" slope="0.400000" intercept="0.000000"/></feComponentTransfer><feGaussianBlur stdDeviation="6.111111 6.111111"/></filter><filter id="fx2" x="-10%" y="-10%" width="120%" height="120%" filterUnits="userSpaceOnUse" primitiveUnits="userSpaceOnUse"><feComponentTransfer color-interpolation-filters="sRGB"><feFuncR type="discrete" tableValues="0.000000 0.000000"/><feFuncG type="discrete" tableValues="0.000000 0.000000"/><feFuncB type="discrete" tableValues="0.000000 0.000000"/><feFuncA type="linear" slope="0.400000" intercept="0.000000"/></feComponentTransfer><feGaussianBlur stdDeviation="6.111111 6.111111"/></filter><linearGradient x1="1324.1" y1="1024.91" x2="719.208" y2="431.478" gradientUnits="userSpaceOnUse" spreadMethod="reflect" id="fill3"><stop offset="0" stop-color="#023B53" stop-opacity="1"/><stop offset="0.1" stop-color="#023B53" stop-opacity="1"/><stop offset="0.4" stop-color="#034E6E" stop-opacity="1"/><stop offset="0.9" stop-color="#6EA1B6" stop-opacity="1"/><stop offset="1" stop-color="#6EA1B6" stop-opacity="1"/></linearGradient><linearGradient x1="445" y1="483.5" x2="445" y2="978.5" gradientUnits="userSpaceOnUse" spreadMethod="reflect" id="fill4"><stop offset="0" stop-color="#FFFFFF" stop-opacity="1"/><stop offset="0.05" stop-color="#FFFFFF" stop-opacity="1"/><stop offset="0.75" stop-color="#EEECE1" stop-opacity="1"/><stop offset="1" stop-color="#EEECE1" stop-opacity="1"/></linearGradient><linearGradient x1="444" y1="766.844" x2="444" y2="810.156" gradientUnits="userSpaceOnUse" spreadMethod="reflect" id="stroke5"><stop offset="0" stop-color="#EEECE1" stop-opacity="1"/><stop offset="0.05" stop-color="#EEECE1" stop-opacity="1"/><stop offset="0.75" stop-color="#DDD9C3" stop-opacity="1"/><stop offset="1" stop-color="#DDD9C3" stop-opacity="1"/></linearGradient><linearGradient x1="444" y1="772" x2="444" y2="805" gradientUnits="userSpaceOnUse" spreadMethod="reflect" id="fill6"><stop offset="0" stop-color="#EEECE1" stop-opacity="1"/><stop offset="0.74" stop-color="#DDD9C3" stop-opacity="1"/><stop offset="1" stop-color="#DDD9C3" stop-opacity="1"/></linearGradient><clipPath id="clip7"><path d="M279 805 279 838 609 838 609 805ZM192 407 1361 407 1361 1054 192 1054Z" fill-rule="evenodd" clip-rule="evenodd"/></clipPath><clipPath id="clip8"><rect x="1.66679" y="1.83337" width="376.667" height="79.6667"/></clipPath><linearGradient x1="444" y1="699.844" x2="444" y2="743.156" gradientUnits="userSpaceOnUse" spreadMethod="reflect" id="stroke9"><stop offset="0" stop-color="#6EA1B6" stop-opacity="1"/><stop offset="0.05" stop-color="#6EA1B6" stop-opacity="1"/><stop offset="0.75" stop-color="#497D92" stop-opacity="1"/><stop offset="1" stop-color="#497D92" stop-opacity="1"/></linearGradient><linearGradient x1="444" y1="705" x2="444" y2="738" gradientUnits="userSpaceOnUse" spreadMethod="reflect" id="fill10"><stop offset="0" stop-color="#6EA1B6" stop-opacity="1"/><stop offset="0.75" stop-color="#497D92" stop-opacity="1"/><stop offset="1" stop-color="#497D92" stop-opacity="1"/></linearGradient><clipPath id="clip11"><path d="M279 739 279 772 609 772 609 739ZM192 407 1361 407 1361 1054 192 1054Z" fill-rule="evenodd" clip-rule="evenodd"/></clipPath><clipPath id="clip12"><rect x="1.66679" y="1.83337" width="376.667" height="79.6667"/></clipPath><clipPath id="clip13"><rect x="13.5383" y="1.66669" width="128.705" height="151.833"/></clipPath></defs><g transform="translate(-192 -407)"><g><path d="M1002.72 633.547C1008.43 633.547 1014.9 633.547 1022.12 633.547 1029.34 633.547 1036.99 633.547 1045.05 633.547 1053.12 633.547 1061.01 633.547 1068.74 633.547 1076.47 633.547 1083.61 633.547 1090.16 633.547 1096.71 633.547 1102 633.547 1106.04 633.547 1107.38 633.547 1108.39 633.799 1109.06 634.303 1109.73 634.807 1110.32 635.395 1110.82 636.067 1111.33 636.739 1111.58 637.747 1111.58 639.091 1111.58 654.883 1111.58 672.103 1111.58 690.751 1111.58 709.399 1111.58 728.299 1111.58 747.451 1111.58 766.603 1111.58 785.419 1111.58 803.899 1111.58 822.379 1111.58 839.683 1111.58 855.811 1111.58 860.851 1111.58 866.143 1111.58 871.687 1111.58 877.231 1111.58 882.691 1111.58 888.067 1111.58 893.443 1111.58 898.987 1111.58 904.699 1100.49 904.699 1090.16 904.699 1080.58 904.699 1071.01 904.699 1060.51 904.699 1049.08 904.699 1047.4 904.699 1046.06 904.195 1045.05 903.187 1044.04 902.179 1043.54 900.835 1043.54 899.155 1043.54 890.083 1043.54 878.743 1043.54 865.135 1043.54 851.527 1043.54 836.827 1043.54 821.035 1043.54 805.243 1043.54 789.451 1043.54 773.659 1043.54 757.867 1043.54 743.083 1043.54 729.307 1043.54 715.531 1043.54 703.939 1043.54 694.531L1040.01 694.531C1038 694.531 1035.73 694.531 1033.21 694.531 1030.69 694.531 1028 694.531 1025.14 694.531 1022.29 694.531 1019.43 694.531 1016.58 694.531 1013.72 694.531 1010.95 694.531 1008.26 694.531 1006.58 694.531 1005.24 694.027 1004.23 693.019 1003.22 692.011 1002.72 690.667 1002.72 688.987 1002.72 679.915 1002.72 670.675 1002.72 661.267 1002.72 651.859 1002.72 642.619 1002.72 633.547ZM1174.17 551.899C1184.58 551.899 1195.08 551.899 1205.67 551.899 1216.25 551.899 1226.58 551.899 1236.66 551.899 1237.67 551.899 1238.59 552.151 1239.43 552.655 1240.27 553.159 1240.95 553.831 1241.45 554.671 1241.95 555.511 1242.21 556.435 1242.21 557.443 1242.21 576.931 1242.21 596.335 1242.21 615.655L1242.21 633.547 1327.38 633.547C1329.4 633.547 1330.91 634.051 1331.92 635.059 1332.93 636.067 1333.43 637.411 1333.43 639.091 1333.43 646.147 1333.43 652.699 1333.43 658.747 1333.43 664.795 1333.43 671.011 1333.43 677.395 1333.43 683.779 1333.43 690.331 1333.43 697.051L1242.21 697.051 1242.21 732.079C1242.21 751.399 1242.21 770.803 1242.21 790.291 1242.21 800.371 1243.21 808.603 1245.23 814.987 1247.25 821.371 1250.27 826.579 1254.3 830.611 1258 833.971 1262.62 836.323 1268.16 837.667 1273.71 839.011 1280.51 839.683 1288.57 839.683 1292.94 839.683 1297.23 839.683 1301.43 839.683 1305.63 839.683 1309.91 839.683 1314.28 839.683 1318.65 839.683 1323.01 839.683 1327.38 839.683L1333.43 839.683C1333.43 849.763 1333.43 859.759 1333.43 869.671 1333.43 879.583 1333.43 889.411 1333.43 899.155 1333.43 900.499 1332.93 901.759 1331.92 902.935 1330.91 904.111 1329.57 904.699 1327.89 904.699 1324.53 904.699 1321.08 904.699 1317.55 904.699 1314.03 904.699 1310.5 904.699 1306.97 904.699 1303.44 904.699 1300 904.699 1296.64 904.699 1293.28 904.699 1289.75 904.699 1286.05 904.699 1268.58 904.699 1252.96 902.599 1239.18 898.399 1225.41 894.199 1213.65 887.731 1203.9 878.995 1194.16 870.259 1186.77 859.003 1181.73 845.227 1176.69 831.451 1174.17 815.155 1174.17 796.339 1174.17 779.875 1174.17 763.579 1174.17 747.451 1174.17 731.323 1174.17 715.195 1174.17 699.067L1174.17 697.051 1138.89 697.051C1138.21 697.051 1137.54 696.883 1136.87 696.547 1136.2 696.211 1135.53 695.791 1134.85 695.287 1134.18 694.783 1133.68 694.195 1133.34 693.523 1133.01 692.851 1132.84 692.179 1132.84 691.507 1132.84 684.787 1132.84 678.235 1132.84 671.851 1132.84 665.467 1132.84 659.251 1132.84 653.203 1132.84 647.155 1132.84 640.603 1132.84 633.547L1174.17 633.547 1174.17 602.299C1174.17 593.563 1174.17 585.079 1174.17 576.847 1174.17 568.615 1174.17 560.299 1174.17 551.899ZM763.186 526.699C771.586 526.699 779.23 526.699 786.118 526.699 793.006 526.699 799.726 526.699 806.278 526.699 812.83 526.699 819.298 526.699 825.682 526.699 827.026 526.699 828.034 526.951 828.706 527.455 829.378 527.959 829.966 528.547 830.47 529.219 830.974 529.891 831.226 530.899 831.226 532.243 831.226 563.155 831.226 594.151 831.226 625.231 831.226 656.311 831.226 687.391 831.226 718.471L831.226 748.963 840.802 748.963C843.154 741.907 845.506 735.523 847.858 729.811 850.21 724.099 852.73 718.723 855.418 713.683 858.106 708.643 861.046 703.939 864.238 699.571 867.43 695.203 871.042 690.667 875.074 685.963 879.442 680.587 883.81 675.379 888.178 670.339 892.546 665.299 897.334 659.755 902.542 653.707 907.75 647.659 913.378 640.939 919.426 633.547L994.522 633.547C995.53 633.547 996.453 633.715 997.294 634.051 998.133 634.387 998.721 634.891 999.057 635.563 999.393 636.235 999.562 637.075 999.562 638.083 999.562 639.091 999.393 640.015 999.057 640.855 998.721 641.695 997.546 643.123 995.53 645.139 985.114 656.899 974.782 668.239 964.534 679.159 954.286 690.079 944.289 700.999 934.546 711.919 924.802 722.839 915.142 733.423 905.566 743.671L899.697 750.003 912.81 767.422C919.825 776.704 926.818 785.923 933.79 795.079 947.734 813.391 961.677 831.619 975.622 849.763 989.565 867.907 1003.59 886.219 1017.71 904.699 1010.31 904.699 1003.17 904.699 996.286 904.699 989.398 904.699 981.838 904.699 973.606 904.699 965.374 904.699 955.378 904.699 943.618 904.699 939.586 904.699 936.562 904.195 934.546 903.187 932.53 902.179 930.514 900.331 928.498 897.643 927.154 895.963 925.306 893.359 922.954 889.831 920.602 886.303 917.83 882.271 914.638 877.735 911.446 873.199 908.086 868.411 904.558 863.371 901.03 858.331 897.586 853.459 894.226 848.755 889.858 842.371 886.162 836.407 883.138 830.863 880.114 825.319 877.594 819.439 875.578 813.223 873.562 807.007 871.882 800.203 870.538 792.811L860.364 792.811 849.118 805.411C844.666 810.451 840.151 815.449 835.573 820.405L831.226 825.008 831.226 904.699C823.834 904.699 816.862 904.699 810.31 904.699 803.758 904.699 797.038 904.699 790.15 904.699 783.262 904.699 776.122 904.699 768.73 904.699 767.722 904.699 766.798 904.447 765.958 903.943 765.118 903.439 764.446 902.851 763.942 902.179 763.438 901.507 763.186 900.499 763.186 899.155 763.186 872.275 763.186 845.395 763.186 818.515 763.186 791.635 763.186 764.671 763.186 737.623 763.186 710.575 763.186 683.611 763.186 656.731 763.186 629.851 763.186 602.971 763.186 576.091 763.186 566.683 763.186 557.779 763.186 549.379 763.186 540.979 763.186 533.419 763.186 526.699ZM1031.44 504.523C1037.83 504.523 1044.46 504.523 1051.35 504.523 1058.24 504.523 1065.3 504.523 1072.52 504.523 1079.74 504.523 1086.8 504.523 1093.69 504.523 1100.58 504.523 1107.21 504.523 1113.6 504.523 1115.28 504.523 1116.62 505.027 1117.63 506.035 1118.64 507.043 1119.14 508.387 1119.14 510.067L1119.14 575.083C1112.76 575.083 1106.12 575.083 1099.23 575.083 1092.34 575.083 1085.29 575.083 1078.06 575.083 1070.84 575.083 1063.78 575.083 1056.9 575.083 1050.01 575.083 1043.37 575.083 1036.99 575.083 1035.31 575.083 1033.96 574.579 1032.96 573.571 1031.95 572.563 1031.44 571.219 1031.44 569.539Z" fill="url(#fill3)" fill-rule="evenodd"/><text fill="#000000" fill-opacity="0" font-family="Arial,Arial_MSFontService,sans-serif" font-size="400.176" direction="ltr" writing-mode="lr-tb" x="763.186" y="854.677">kit</text><path d="M197.5 731C197.5 594.31 308.31 483.5 445 483.5 581.691 483.5 692.5 594.31 692.5 731 692.5 867.691 581.691 978.5 445 978.5 308.31 978.5 197.5 867.691 197.5 731Z" stroke="#F2F2F2" stroke-width="9.16667" stroke-linecap="butt" stroke-linejoin="round" stroke-miterlimit="10" stroke-opacity="1" fill="url(#fill4)" fill-rule="evenodd"/><path d="M279 805 363.287 772 524.713 772 609 805Z" stroke="url(#stroke5)" stroke-width="10.3125" stroke-linecap="butt" stroke-linejoin="round" stroke-miterlimit="10" fill="url(#fill6)" fill-rule="evenodd"/><g clip-path="url(#clip7)"><g clip-path="url(#clip8)" filter="url(#fx0)" transform="translate(254 789)"><g><g><path d="M0 33 0 0 330 0 330 33Z" stroke="#C4BD97" stroke-width="10" stroke-linecap="butt" stroke-linejoin="round" stroke-miterlimit="10" stroke-opacity="1" fill="#C4BD97" fill-rule="evenodd" fill-opacity="1" transform="matrix(1 0 0 -1 25.0001 58.1667)"/></g></g></g></g><path d="M0 33 0 0 330 0 330 33Z" stroke="#C4BD97" stroke-width="10.3125" stroke-linecap="butt" stroke-linejoin="round" stroke-miterlimit="10" stroke-opacity="1" fill="#C4BD97" fill-rule="evenodd" fill-opacity="1" transform="matrix(1 0 0 -1 279 838)"/><path d="M279 738 363.287 705 524.713 705 609 738Z" stroke="url(#stroke9)" stroke-width="10.3125" stroke-linecap="butt" stroke-linejoin="round" stroke-miterlimit="10" fill="url(#fill10)" fill-rule="evenodd"/><g clip-path="url(#clip11)"><g clip-path="url(#clip12)" filter="url(#fx1)" transform="translate(254 723)"><g><g><path d="M0 33 0 0 330 0 330 33Z" stroke="#034E6E" stroke-width="10" stroke-linecap="butt" stroke-linejoin="round" stroke-miterlimit="10" stroke-opacity="1" fill="#034E6E" fill-rule="evenodd" fill-opacity="1" transform="matrix(1 0 0 -1 25.0001 58.1667)"/></g></g></g></g><path d="M0 33 0 0 330 0 330 33Z" stroke="#034E6E" stroke-width="10.3125" stroke-linecap="butt" stroke-linejoin="round" stroke-miterlimit="10" stroke-opacity="1" fill="#034E6E" fill-rule="evenodd" fill-opacity="1" transform="matrix(1 0 0 -1 279 772)"/><g clip-path="url(#clip13)" filter="url(#fx2)" transform="translate(259 603)"><g><g><g><g><g><path d="M70.3195 33.5282C70.1598 32.592 69.2719 31.9647 68.3375 32.1228L64.0814 32.8492C63.1461 33.0089 62.517 33.8959 62.6767 34.8311 62.8188 35.6691 63.5461 36.2605 64.3673 36.2605 64.4639 36.2605 64.5605 36.2525 64.6586 36.2358L68.9147 35.5103C69.85 35.3506 70.4792 34.4637 70.3195 33.5282Z" fill="#FFAE8B" fill-rule="nonzero" fill-opacity="1" transform="matrix(1.00869 0 0 1 32.0079 20.1666)"/><path d="M68.3103 41.5555 64.213 39.3296C63.3786 38.8768 62.3353 39.1856 61.8827 40.0192 61.4299 40.8527 61.7387 41.8958 62.5722 42.3495L66.6704 44.5745C66.931 44.7166 67.2118 44.7834 67.4892 44.7834 68.099 44.7834 68.6883 44.4588 68.9999 43.8849 69.4536 43.0514 69.1447 42.0081 68.3103 41.5555Z" fill="#FFAE8B" fill-rule="nonzero" fill-opacity="1" transform="matrix(1.00869 0 0 1 32.0079 20.1666)"/><path d="M5.68543 36.2358C5.78282 36.2525 5.88021 36.2605 5.97585 36.2605 6.79795 36.2605 7.5253 35.6691 7.66743 34.8311 7.82713 33.8959 7.19805 33.0089 6.26275 32.8492L2.00745 32.1228C1.07216 31.964 0.18425 32.592 0.0245667 33.5282-0.135117 34.4637 0.493966 35.3506 1.42925 35.5103Z" fill="#FFAE8B" fill-rule="nonzero" fill-opacity="1" transform="matrix(1.00869 0 0 1 32.0079 20.1666)"/><path d="M6.13115 39.3296 2.03377 41.5555C1.19938 42.0081 0.89142 43.0514 1.34415 43.8858 1.65474 44.4588 2.24522 44.7834 2.85499 44.7834 3.13225 44.7834 3.41301 44.7166 3.6736 44.5754L7.77186 42.3495C8.60536 41.8958 8.9142 40.8536 8.46147 40.0192 8.00785 39.1856 6.96553 38.8768 6.13115 39.3296Z" fill="#FFAE8B" fill-rule="nonzero" fill-opacity="1" transform="matrix(1.00869 0 0 1 32.0079 20.1666)"/><path d="M73.7966 37.13C74.0967 43.0653 81.7087 52.2831 80.8236 64.0427 80.032 74.5635 75.0731 87.3406 64.9219 93.8044 64.9623 94.3853 64.9841 94.9239 64.9841 95.4126 64.9841 101.815 61.6185 105.572 54.7819 107.584 54.7881 107.582 91.0925 99.6766 91.1012 60.9254 91.11 21.3967 73.4009 29.3291 73.7966 37.13Z" fill="#FFDCA7" fill-rule="nonzero" fill-opacity="1" transform="matrix(1.00869 0 0 1 32.0079 20.1666)"/><path d="M70.5283 89.0982C68.8727 90.8836 67.0056 92.4761 64.921 93.8035 64.9623 94.3844 64.9841 94.923 64.9841 95.4117 64.9841 101.815 61.6185 105.572 54.7819 107.584 54.7819 107.584 62.0889 105.992 70.1467 100.74 70.8293 99.2117 71.1687 97.4456 71.1687 95.4117 71.1687 93.7842 70.9311 91.6118 70.5283 89.0982Z" fill="#FFCF86" fill-rule="nonzero" fill-opacity="1" transform="matrix(1.00869 0 0 1 32.0079 20.1666)"/><path d="M43.7542 11.5042C43.7542 11.5042 48.5595-0.809824 52.677 0.0421143 56.8525 0.905458 56.0419 14.797 56.0419 14.797 56.0419 14.797 64.6665 28.0349 64.3875 35.6498 64.1086 43.2636 59.2136 48.3427 54.3695 49.2693 54.3695 49.2693 64.9841 84.5067 64.9841 95.4126 64.9841 106.318 55.2241 109.55 35.1725 109.55 15.1199 109.55 5.35993 106.318 5.35993 95.4126 5.35993 84.5067 15.9745 49.2693 15.9745 49.2693 11.1313 48.3427 6.23555 43.2636 5.95654 35.6498 5.67753 28.0349 14.3022 14.797 14.3022 14.797 14.3022 14.797 13.4915 0.905458 17.6669 0.0421143 21.7836-0.809824 26.59 11.5042 26.59 11.5042Z" fill="#FFE9C8" fill-rule="nonzero" fill-opacity="1" transform="matrix(1.00869 0 0 1 32.0079 20.1666)"/><path d="M35.1725 103.365C16.9168 103.365 7.19364 100.685 5.59682 91.9768 5.44503 93.284 5.35993 94.4457 5.35993 95.4126 5.35993 106.318 15.119 109.55 35.1716 109.55 55.2241 109.55 64.9841 106.317 64.9841 95.4126 64.9841 94.4457 64.899 93.284 64.7473 91.9768 63.1504 100.685 53.4272 103.365 35.1725 103.365Z" fill="#FFDCA7" fill-rule="nonzero" fill-opacity="1" transform="matrix(1.00869 0 0 1 32.0079 20.1666)"/><path d="M17.6669 0.0421143C13.4915 0.905458 14.3022 14.797 14.3022 14.797 14.3022 14.797 5.67753 28.0349 5.95654 35.6498 6.10395 39.6762 7.54284 42.9925 9.58189 45.3624 33.8309 39.9392 31.6962 11.5042 31.6962 11.5042L26.59 11.5042C26.59 11.5042 21.7836-0.809824 17.6669 0.0421143Z" fill="#FFAE8B" fill-rule="nonzero" fill-opacity="1" transform="matrix(1.00869 0 0 1 32.0079 20.1666)"/><path d="M52.677 0.0421143C56.8516 0.905458 56.0419 14.797 56.0419 14.797 56.0419 14.797 64.6665 28.0349 64.3875 35.6498 64.2402 39.6762 62.8013 42.9925 60.7621 45.3624 36.513 39.9392 38.6468 11.5042 38.6468 11.5042L43.7542 11.5042C43.7542 11.5042 48.5595-0.809824 52.677 0.0421143Z" fill="#FFAE8B" fill-rule="nonzero" fill-opacity="1" transform="matrix(1.00869 0 0 1 32.0079 20.1666)"/><path d="M20.7562 24.9993C18.8005 24.9993 17.2686 26.9015 17.2686 29.33 17.2686 31.7587 18.8005 33.6607 20.7562 33.6607 22.711 33.6607 24.243 31.7587 24.243 29.33 24.243 26.9015 22.711 24.9993 20.7562 24.9993Z" fill="#433F43" fill-rule="nonzero" fill-opacity="1" transform="matrix(1.00869 0 0 1 32.0079 20.1666)"/><path d="M49.5878 24.9993C47.633 24.9993 46.1011 26.9015 46.1011 29.33 46.1011 31.7587 47.633 33.6607 49.5878 33.6607 51.5434 33.6607 53.0755 31.7587 53.0755 29.33 53.0755 26.9015 51.5434 24.9993 49.5878 24.9993Z" fill="#433F43" fill-rule="nonzero" fill-opacity="1" transform="matrix(1.00869 0 0 1 32.0079 20.1666)"/><path d="M40.45 33.2598C40.45 32.6614 40.2191 31.2147 38.0853 30.7093 37.3843 30.5433 36.513 30.4723 35.1725 30.4723 33.83 30.4723 32.9597 30.5433 32.2596 30.7093 30.1249 31.2147 29.8942 32.6614 29.8942 33.2598 29.8942 34.8936 31.4481 36.4122 33.4545 36.9878L33.4545 40.8394C33.4545 41.788 34.2231 42.5575 35.1725 42.5575 36.1208 42.5575 36.8903 41.788 36.8903 40.8394L36.8903 36.9878C38.8961 36.4122 40.45 34.8936 40.45 33.2598Z" fill="#DD8858" fill-rule="nonzero" fill-opacity="1" transform="matrix(1.00869 0 0 1 32.0079 20.1666)"/><path d="M17.0791 68.8447C17.0791 68.8447 18.754 113.282 25.1493 113.282 31.5444 113.282 31.6962 73.221 31.6962 73.221" fill="#FFE9C8" fill-rule="nonzero" fill-opacity="1" transform="matrix(1.00869 0 0 1 32.0079 20.1666)"/><path d="M53.2651 68.8447C53.2651 68.8447 51.5902 113.282 45.1948 113.282 38.7995 113.282 38.6468 73.221 38.6468 73.221" fill="#FFE9C8" fill-rule="nonzero" fill-opacity="1" transform="matrix(1.00869 0 0 1 32.0079 20.1666)"/><path d="M25.1493 115C22.0161 115 20.4974 110.597 19.5253 106.761 18.5707 102.998 17.724 97.7798 17.0081 91.2504 15.7972 80.2077 15.3665 69.021 15.3621 68.9087 15.3261 67.9611 16.0657 67.1635 17.0142 67.1275 17.9618 67.0864 18.7602 67.8312 18.7961 68.7798 18.7997 68.8833 19.1989 79.2398 20.307 89.7877 20.9536 95.9443 21.7108 100.952 22.5576 104.673 23.7806 110.048 24.8607 111.272 25.1702 111.523 25.6363 111.177 27.8875 108.672 29.1869 92.1452 29.9344 82.638 29.9784 73.3079 29.9784 73.214 29.9818 72.2673 30.7504 71.5032 31.6962 71.5032L31.7032 71.5032C32.6517 71.5065 33.4177 72.2787 33.4143 73.2272 33.4143 73.3281 33.3669 83.4268 32.5334 93.3947 32.0395 99.2977 31.3681 104.02 30.5391 107.428 29.7484 110.679 28.3298 115 25.1493 115Z" fill="#FFDCA7" fill-rule="nonzero" fill-opacity="1" transform="matrix(1.00869 0 0 1 32.0079 20.1666)"/><path d="M45.1948 115C42.0144 115 40.5955 110.679 39.8042 107.429 38.9749 104.02 38.3047 99.2986 37.8108 93.3947 36.9773 83.4268 36.9299 73.3281 36.929 73.2272 36.9254 72.2787 37.6915 71.5065 38.6407 71.5032L38.6468 71.5032C39.5926 71.5032 40.3612 72.2673 40.3648 73.2149 40.3657 73.3079 40.4095 82.6546 41.1579 92.1619 42.4573 108.673 44.7079 111.177 45.1737 111.524 45.4835 111.272 46.5636 110.049 47.7866 104.673 48.6332 100.953 49.3906 95.9452 50.037 89.7877 51.1452 79.2398 51.5443 68.8833 51.5479 68.7798 51.5839 67.8312 52.3884 67.0882 53.33 67.1275 54.2774 67.1635 55.017 67.9611 54.982 68.9096 54.9777 69.021 54.5469 80.2077 53.336 91.2513 52.62 97.7798 51.7734 102.998 50.8188 106.761 49.8467 110.597 48.3279 115 45.1948 115Z" fill="#FFDCA7" fill-rule="nonzero" fill-opacity="1" transform="matrix(1.00869 0 0 1 32.0079 20.1666)"/></g></g></g></g></g></g><g><g><g><path d="M70.3195 33.5282C70.1598 32.592 69.2719 31.9647 68.3375 32.1228L64.0814 32.8492C63.1461 33.0089 62.517 33.8959 62.6767 34.8311 62.8188 35.6691 63.5461 36.2605 64.3673 36.2605 64.4639 36.2605 64.5605 36.2525 64.6586 36.2358L68.9147 35.5103C69.85 35.3506 70.4792 34.4637 70.3195 33.5282Z" fill="#FFAE8B" fill-rule="nonzero" fill-opacity="1" transform="matrix(1.00869 0 0 1 291.008 614)"/><path d="M68.3103 41.5555 64.213 39.3296C63.3786 38.8768 62.3353 39.1856 61.8827 40.0192 61.4299 40.8527 61.7387 41.8958 62.5722 42.3495L66.6704 44.5745C66.931 44.7166 67.2118 44.7834 67.4892 44.7834 68.099 44.7834 68.6883 44.4588 68.9999 43.8849 69.4536 43.0514 69.1447 42.0081 68.3103 41.5555Z" fill="#FFAE8B" fill-rule="nonzero" fill-opacity="1" transform="matrix(1.00869 0 0 1 291.008 614)"/><path d="M5.68543 36.2358C5.78282 36.2525 5.88021 36.2605 5.97585 36.2605 6.79795 36.2605 7.5253 35.6691 7.66743 34.8311 7.82713 33.8959 7.19805 33.0089 6.26275 32.8492L2.00745 32.1228C1.07216 31.964 0.18425 32.592 0.0245667 33.5282-0.135117 34.4637 0.493966 35.3506 1.42925 35.5103Z" fill="#FFAE8B" fill-rule="nonzero" fill-opacity="1" transform="matrix(1.00869 0 0 1 291.008 614)"/><path d="M6.13115 39.3296 2.03377 41.5555C1.19938 42.0081 0.89142 43.0514 1.34415 43.8858 1.65474 44.4588 2.24522 44.7834 2.85499 44.7834 3.13225 44.7834 3.41301 44.7166 3.6736 44.5754L7.77186 42.3495C8.60536 41.8958 8.9142 40.8536 8.46147 40.0192 8.00785 39.1856 6.96553 38.8768 6.13115 39.3296Z" fill="#FFAE8B" fill-rule="nonzero" fill-opacity="1" transform="matrix(1.00869 0 0 1 291.008 614)"/><path d="M73.7966 37.13C74.0967 43.0653 81.7087 52.2831 80.8236 64.0427 80.032 74.5635 75.0731 87.3406 64.9219 93.8044 64.9623 94.3853 64.9841 94.9239 64.9841 95.4126 64.9841 101.815 61.6185 105.572 54.7819 107.584 54.7881 107.582 91.0925 99.6766 91.1012 60.9254 91.11 21.3967 73.4009 29.3291 73.7966 37.13Z" fill="#FFDCA7" fill-rule="nonzero" fill-opacity="1" transform="matrix(1.00869 0 0 1 291.008 614)"/><path d="M70.5283 89.0982C68.8727 90.8836 67.0056 92.4761 64.921 93.8035 64.9623 94.3844 64.9841 94.923 64.9841 95.4117 64.9841 101.815 61.6185 105.572 54.7819 107.584 54.7819 107.584 62.0889 105.992 70.1467 100.74 70.8293 99.2117 71.1687 97.4456 71.1687 95.4117 71.1687 93.7842 70.9311 91.6118 70.5283 89.0982Z" fill="#FFCF86" fill-rule="nonzero" fill-opacity="1" transform="matrix(1.00869 0 0 1 291.008 614)"/><path d="M43.7542 11.5042C43.7542 11.5042 48.5595-0.809824 52.677 0.0421143 56.8525 0.905458 56.0419 14.797 56.0419 14.797 56.0419 14.797 64.6665 28.0349 64.3875 35.6498 64.1086 43.2636 59.2136 48.3427 54.3695 49.2693 54.3695 49.2693 64.9841 84.5067 64.9841 95.4126 64.9841 106.318 55.2241 109.55 35.1725 109.55 15.1199 109.55 5.35993 106.318 5.35993 95.4126 5.35993 84.5067 15.9745 49.2693 15.9745 49.2693 11.1313 48.3427 6.23555 43.2636 5.95654 35.6498 5.67753 28.0349 14.3022 14.797 14.3022 14.797 14.3022 14.797 13.4915 0.905458 17.6669 0.0421143 21.7836-0.809824 26.59 11.5042 26.59 11.5042Z" fill="#FFE9C8" fill-rule="nonzero" fill-opacity="1" transform="matrix(1.00869 0 0 1 291.008 614)"/><path d="M35.1725 103.365C16.9168 103.365 7.19364 100.685 5.59682 91.9768 5.44503 93.284 5.35993 94.4457 5.35993 95.4126 5.35993 106.318 15.119 109.55 35.1716 109.55 55.2241 109.55 64.9841 106.317 64.9841 95.4126 64.9841 94.4457 64.899 93.284 64.7473 91.9768 63.1504 100.685 53.4272 103.365 35.1725 103.365Z" fill="#FFDCA7" fill-rule="nonzero" fill-opacity="1" transform="matrix(1.00869 0 0 1 291.008 614)"/><path d="M17.6669 0.0421143C13.4915 0.905458 14.3022 14.797 14.3022 14.797 14.3022 14.797 5.67753 28.0349 5.95654 35.6498 6.10395 39.6762 7.54284 42.9925 9.58189 45.3624 33.8309 39.9392 31.6962 11.5042 31.6962 11.5042L26.59 11.5042C26.59 11.5042 21.7836-0.809824 17.6669 0.0421143Z" fill="#FFAE8B" fill-rule="nonzero" fill-opacity="1" transform="matrix(1.00869 0 0 1 291.008 614)"/><path d="M52.677 0.0421143C56.8516 0.905458 56.0419 14.797 56.0419 14.797 56.0419 14.797 64.6665 28.0349 64.3875 35.6498 64.2402 39.6762 62.8013 42.9925 60.7621 45.3624 36.513 39.9392 38.6468 11.5042 38.6468 11.5042L43.7542 11.5042C43.7542 11.5042 48.5595-0.809824 52.677 0.0421143Z" fill="#FFAE8B" fill-rule="nonzero" fill-opacity="1" transform="matrix(1.00869 0 0 1 291.008 614)"/><path d="M20.7562 24.9993C18.8005 24.9993 17.2686 26.9015 17.2686 29.33 17.2686 31.7587 18.8005 33.6607 20.7562 33.6607 22.711 33.6607 24.243 31.7587 24.243 29.33 24.243 26.9015 22.711 24.9993 20.7562 24.9993Z" fill="#433F43" fill-rule="nonzero" fill-opacity="1" transform="matrix(1.00869 0 0 1 291.008 614)"/><path d="M49.5878 24.9993C47.633 24.9993 46.1011 26.9015 46.1011 29.33 46.1011 31.7587 47.633 33.6607 49.5878 33.6607 51.5434 33.6607 53.0755 31.7587 53.0755 29.33 53.0755 26.9015 51.5434 24.9993 49.5878 24.9993Z" fill="#433F43" fill-rule="nonzero" fill-opacity="1" transform="matrix(1.00869 0 0 1 291.008 614)"/><path d="M40.45 33.2598C40.45 32.6614 40.2191 31.2147 38.0853 30.7093 37.3843 30.5433 36.513 30.4723 35.1725 30.4723 33.83 30.4723 32.9597 30.5433 32.2596 30.7093 30.1249 31.2147 29.8942 32.6614 29.8942 33.2598 29.8942 34.8936 31.4481 36.4122 33.4545 36.9878L33.4545 40.8394C33.4545 41.788 34.2231 42.5575 35.1725 42.5575 36.1208 42.5575 36.8903 41.788 36.8903 40.8394L36.8903 36.9878C38.8961 36.4122 40.45 34.8936 40.45 33.2598Z" fill="#DD8858" fill-rule="nonzero" fill-opacity="1" transform="matrix(1.00869 0 0 1 291.008 614)"/><path d="M17.0791 68.8447C17.0791 68.8447 18.754 113.282 25.1493 113.282 31.5444 113.282 31.6962 73.221 31.6962 73.221" fill="#FFE9C8" fill-rule="nonzero" fill-opacity="1" transform="matrix(1.00869 0 0 1 291.008 614)"/><path d="M53.2651 68.8447C53.2651 68.8447 51.5902 113.282 45.1948 113.282 38.7995 113.282 38.6468 73.221 38.6468 73.221" fill="#FFE9C8" fill-rule="nonzero" fill-opacity="1" transform="matrix(1.00869 0 0 1 291.008 614)"/><path d="M25.1493 115C22.0161 115 20.4974 110.597 19.5253 106.761 18.5707 102.998 17.724 97.7798 17.0081 91.2504 15.7972 80.2077 15.3665 69.021 15.3621 68.9087 15.3261 67.9611 16.0657 67.1635 17.0142 67.1275 17.9618 67.0864 18.7602 67.8312 18.7961 68.7798 18.7997 68.8833 19.1989 79.2398 20.307 89.7877 20.9536 95.9443 21.7108 100.952 22.5576 104.673 23.7806 110.048 24.8607 111.272 25.1702 111.523 25.6363 111.177 27.8875 108.672 29.1869 92.1452 29.9344 82.638 29.9784 73.3079 29.9784 73.214 29.9818 72.2673 30.7504 71.5032 31.6962 71.5032L31.7032 71.5032C32.6517 71.5065 33.4177 72.2787 33.4143 73.2272 33.4143 73.3281 33.3669 83.4268 32.5334 93.3947 32.0395 99.2977 31.3681 104.02 30.5391 107.428 29.7484 110.679 28.3298 115 25.1493 115Z" fill="#FFDCA7" fill-rule="nonzero" fill-opacity="1" transform="matrix(1.00869 0 0 1 291.008 614)"/><path d="M45.1948 115C42.0144 115 40.5955 110.679 39.8042 107.429 38.9749 104.02 38.3047 99.2986 37.8108 93.3947 36.9773 83.4268 36.9299 73.3281 36.929 73.2272 36.9254 72.2787 37.6915 71.5065 38.6407 71.5032L38.6468 71.5032C39.5926 71.5032 40.3612 72.2673 40.3648 73.2149 40.3657 73.3079 40.4095 82.6546 41.1579 92.1619 42.4573 108.673 44.7079 111.177 45.1737 111.524 45.4835 111.272 46.5636 110.049 47.7866 104.673 48.6332 100.953 49.3906 95.9452 50.037 89.7877 51.1452 79.2398 51.5443 68.8833 51.5479 68.7798 51.5839 67.8312 52.3884 67.0882 53.33 67.1275 54.2774 67.1635 55.017 67.9611 54.982 68.9096 54.9777 69.021 54.5469 80.2077 53.336 91.2513 52.62 97.7798 51.7734 102.998 50.8188 106.761 49.8467 110.597 48.3279 115 45.1948 115Z" fill="#FFDCA7" fill-rule="nonzero" fill-opacity="1" transform="matrix(1.00869 0 0 1 291.008 614)"/></g></g></g></g></g></svg>