<svg width="944" height="944" xmlns="http://www.w3.org/2000/svg" xmlns:xlink="http://www.w3.org/1999/xlink" xml:space="preserve" overflow="hidden"><defs><filter id="fx0" x="-10%" y="-10%" width="120%" height="120%" filterUnits="userSpaceOnUse" primitiveUnits="userSpaceOnUse"><feComponentTransfer color-interpolation-filters="sRGB"><feFuncR type="discrete" tableValues="0.000000 0.000000"/><feFuncG type="discrete" tableValues="0.000000 0.000000"/><feFuncB type="discrete" tableValues="0.000000 0.000000"/><feFuncA type="linear" slope="0.250980" intercept="0.000000"/></feComponentTransfer><feGaussianBlur stdDeviation="6.111111 6.111111"/></filter><filter id="fx1" x="-10%" y="-10%" width="120%" height="120%" filterUnits="userSpaceOnUse" primitiveUnits="userSpaceOnUse"><feComponentTransfer color-interpolation-filters="sRGB"><feFuncR type="discrete" tableValues="0.000000 0.000000"/><feFuncG type="discrete" tableValues="0.000000 0.000000"/><feFuncB type="discrete" tableValues="0.000000 0.000000"/><feFuncA type="linear" slope="0.250980" intercept="0.000000"/></feComponentTransfer><feGaussianBlur stdDeviation="6.111111 6.111111"/></filter><linearGradient x1="1027.25" y1="1107.75" x2="110.75" y2="191.25" gradientUnits="userSpaceOnUse" spreadMethod="reflect" id="fill2"><stop offset="0" stop-color="#FFFFFF" stop-opacity="1"/><stop offset="0.0344828" stop-color="#FEFEFE" stop-opacity="1"/><stop offset="0.0689655" stop-color="#FEFEFE" stop-opacity="1"/><stop offset="0.103448" stop-color="#FEFEFE" stop-opacity="1"/><stop offset="0.137931" stop-color="#FEFEFE" stop-opacity="1"/><stop offset="0.172414" stop-color="#FEFEFD" stop-opacity="1"/><stop offset="0.206897" stop-color="#FEFEFD" stop-opacity="1"/><stop offset="0.241379" stop-color="#FDFDFC" stop-opacity="1"/><stop offset="0.275862" stop-color="#FDFDFC" stop-opacity="1"/><stop offset="0.310345" stop-color="#FDFCFB" stop-opacity="1"/><stop offset="0.344828" stop-color="#FCFCFA" stop-opacity="1"/><stop offset="0.37931" stop-color="#FCFBFA" stop-opacity="1"/><stop offset="0.413793" stop-color="#FBFBF9" stop-opacity="1"/><stop offset="0.448276" stop-color="#FBFAF8" stop-opacity="1"/><stop offset="0.482759" stop-color="#FAFAF7" stop-opacity="1"/><stop offset="0.517241" stop-color="#FAF9F6" stop-opacity="1"/><stop offset="0.551724" stop-color="#F9F8F5" stop-opacity="1"/><stop offset="0.586207" stop-color="#F8F8F3" stop-opacity="1"/><stop offset="0.62069" stop-color="#F8F7F2" stop-opacity="1"/><stop offset="0.655172" stop-color="#F7F6F1" stop-opacity="1"/><stop offset="0.689655" stop-color="#F6F5F0" stop-opacity="1"/><stop offset="0.724138" stop-color="#F5F4EE" stop-opacity="1"/><stop offset="0.758621" stop-color="#F4F3ED" stop-opacity="1"/><stop offset="0.793103" stop-color="#F3F2EB" stop-opacity="1"/><stop offset="0.827586" stop-color="#F3F1E9" stop-opacity="1"/><stop offset="0.862069" stop-color="#F2F0E8" stop-opacity="1"/><stop offset="0.896552" stop-color="#F1EFE6" stop-opacity="1"/><stop offset="0.931035" stop-color="#F0EEE4" stop-opacity="1"/><stop offset="0.965517" stop-color="#EFEDE2" stop-opacity="1"/><stop offset="1" stop-color="#EEECE1" stop-opacity="1"/></linearGradient><linearGradient x1="569" y1="777" x2="569" y2="685" gradientUnits="userSpaceOnUse" spreadMethod="reflect" id="fill3"><stop offset="0" stop-color="#C3BD9B" stop-opacity="1"/><stop offset="0.2405" stop-color="#D9D5BF" stop-opacity="1"/><stop offset="1" stop-color="#EEEDE2" stop-opacity="1"/></linearGradient><linearGradient x1="568" y1="626" x2="568" y2="535" gradientUnits="userSpaceOnUse" spreadMethod="reflect" id="fill4"><stop offset="0" stop-color="#2B4D6B" stop-opacity="1"/><stop offset="0.0121951" stop-color="#2C4E6C" stop-opacity="1"/><stop offset="0.0243902" stop-color="#2E506E" stop-opacity="1"/><stop offset="0.0365854" stop-color="#30526F" stop-opacity="1"/><stop offset="0.0487805" stop-color="#315471" stop-opacity="1"/><stop offset="0.0609756" stop-color="#335673" stop-opacity="1"/><stop offset="0.0731707" stop-color="#355874" stop-opacity="1"/><stop offset="0.0853659" stop-color="#375976" stop-opacity="1"/><stop offset="0.097561" stop-color="#385B77" stop-opacity="1"/><stop offset="0.109756" stop-color="#3A5D79" stop-opacity="1"/><stop offset="0.121951" stop-color="#3B5E7A" stop-opacity="1"/><stop offset="0.134146" stop-color="#3D607C" stop-opacity="1"/><stop offset="0.146341" stop-color="#3F627D" stop-opacity="1"/><stop offset="0.158537" stop-color="#40637F" stop-opacity="1"/><stop offset="0.170732" stop-color="#426580" stop-opacity="1"/><stop offset="0.182927" stop-color="#436782" stop-opacity="1"/><stop offset="0.195122" stop-color="#456883" stop-opacity="1"/><stop offset="0.207317" stop-color="#466A84" stop-opacity="1"/><stop offset="0.219512" stop-color="#476B86" stop-opacity="1"/><stop offset="0.231707" stop-color="#496D87" stop-opacity="1"/><stop offset="0.243902" stop-color="#4A6E88" stop-opacity="1"/><stop offset="0.256098" stop-color="#4C708A" stop-opacity="1"/><stop offset="0.268293" stop-color="#4D718B" stop-opacity="1"/><stop offset="0.280488" stop-color="#4E738C" stop-opacity="1"/><stop offset="0.292683" stop-color="#50748D" stop-opacity="1"/><stop offset="0.304878" stop-color="#51768F" stop-opacity="1"/><stop offset="0.317073" stop-color="#527790" stop-opacity="1"/><stop offset="0.329268" stop-color="#547891" stop-opacity="1"/><stop offset="0.341463" stop-color="#557A92" stop-opacity="1"/><stop offset="0.353659" stop-color="#567B93" stop-opacity="1"/><stop offset="0.365854" stop-color="#577C94" stop-opacity="1"/><stop offset="0.378049" stop-color="#587D96" stop-opacity="1"/><stop offset="0.390244" stop-color="#5A7F97" stop-opacity="1"/><stop offset="0.402439" stop-color="#5B8098" stop-opacity="1"/><stop offset="0.414634" stop-color="#5C8199" stop-opacity="1"/><stop offset="0.426829" stop-color="#5D829A" stop-opacity="1"/><stop offset="0.439024" stop-color="#5E839B" stop-opacity="1"/><stop offset="0.451219" stop-color="#5F859C" stop-opacity="1"/><stop offset="0.463415" stop-color="#60869D" stop-opacity="1"/><stop offset="0.47561" stop-color="#61879E" stop-opacity="1"/><stop offset="0.487805" stop-color="#62889F" stop-opacity="1"/><stop offset="0.5" stop-color="#6389A0" stop-opacity="1"/><stop offset="0.512195" stop-color="#648AA0" stop-opacity="1"/><stop offset="0.52439" stop-color="#658BA1" stop-opacity="1"/><stop offset="0.536585" stop-color="#668CA2" stop-opacity="1"/><stop offset="0.548781" stop-color="#678DA3" stop-opacity="1"/><stop offset="0.560976" stop-color="#688EA4" stop-opacity="1"/><stop offset="0.573171" stop-color="#698FA5" stop-opacity="1"/><stop offset="0.585366" stop-color="#6A90A5" stop-opacity="1"/><stop offset="0.597561" stop-color="#6A90A6" stop-opacity="1"/><stop offset="0.609756" stop-color="#6B91A7" stop-opacity="1"/><stop offset="0.621951" stop-color="#6C92A8" stop-opacity="1"/><stop offset="0.634146" stop-color="#6D93A8" stop-opacity="1"/><stop offset="0.646341" stop-color="#6D94A9" stop-opacity="1"/><stop offset="0.658537" stop-color="#6E94AA" stop-opacity="1"/><stop offset="0.670732" stop-color="#6F95AA" stop-opacity="1"/><stop offset="0.682927" stop-color="#6F96AB" stop-opacity="1"/><stop offset="0.695122" stop-color="#7097AC" stop-opacity="1"/><stop offset="0.707317" stop-color="#7197AC" stop-opacity="1"/><stop offset="0.719512" stop-color="#7198AD" stop-opacity="1"/><stop offset="0.731707" stop-color="#7298AD" stop-opacity="1"/><stop offset="0.743902" stop-color="#7299AE" stop-opacity="1"/><stop offset="0.756098" stop-color="#739AAE" stop-opacity="1"/><stop offset="0.768293" stop-color="#739AAF" stop-opacity="1"/><stop offset="0.780488" stop-color="#749BAF" stop-opacity="1"/><stop offset="0.792683" stop-color="#749BB0" stop-opacity="1"/><stop offset="0.804878" stop-color="#759CB0" stop-opacity="1"/><stop offset="0.817073" stop-color="#759CB0" stop-opacity="1"/><stop offset="0.829268" stop-color="#769CB1" stop-opacity="1"/><stop offset="0.841463" stop-color="#769DB1" stop-opacity="1"/><stop offset="0.853659" stop-color="#769DB2" stop-opacity="1"/><stop offset="0.865854" stop-color="#779EB2" stop-opacity="1"/><stop offset="0.878049" stop-color="#779EB2" stop-opacity="1"/><stop offset="0.890244" stop-color="#779EB2" stop-opacity="1"/><stop offset="0.902439" stop-color="#789EB3" stop-opacity="1"/><stop offset="0.914634" stop-color="#789FB3" stop-opacity="1"/><stop offset="0.926829" stop-color="#789FB3" stop-opacity="1"/><stop offset="0.939024" stop-color="#789FB3" stop-opacity="1"/><stop offset="0.951219" stop-color="#789FB3" stop-opacity="1"/><stop offset="0.963415" stop-color="#789FB3" stop-opacity="1"/><stop offset="0.97561" stop-color="#789FB3" stop-opacity="1"/><stop offset="0.987805" stop-color="#789FB3" stop-opacity="1"/><stop offset="1" stop-color="#79A0B4" stop-opacity="1"/></linearGradient><clipPath id="clip5"><rect x="1.66653" y="1.66663" width="654.667" height="128.667"/></clipPath><clipPath id="clip6"><path d="M820.905 724.5C820.482 724.502 820.028 724.546 819.541 724.644 816.232 725.315 811.316 732.361 822.091 743.301 824.233 745.027 823.12 746.953 822.974 748.125 822.796 748.831 822.699 749.577 822.648 750.373 822.496 752.631 820.585 754.812 818.912 756.453 818.67 756.69 818.507 756.998 818.422 757.329 817.717 760.09 817.853 763.596 817.953 765.048 818.059 766.602 815.857 766.202 818.177 769.454 818.821 770.354 820.942 769.283 820.672 767.783 820.406 766.283 822.327 760.133 824.196 759.383 825.527 758.85 827.826 758.424 829.045 758.224 828.773 759.946 828.05 762.45 828.719 763.455 833.044 771.437 835.34 770.309 837.104 770.363 838.867 770.417 838.813 769.83 838.813 769.189 838.813 768.546 837.315 767.902 836.354 768.009 835.395 768.115 832.672 764.528 834.436 763.35 835.791 762.444 839.073 758.244 840.516 756.351 841.626 756.322 842.718 756.401 843.695 756.655 845.286 757.068 847.733 757.407 850.274 757.655 850.25 759.79 850.144 762.957 849.684 764.044 849.104 765.415 849.364 766.639 849.554 767.204 849.639 767.457 849.645 767.735 849.588 768.004 849.367 769.054 849.085 770.363 850.985 770.363 853.229 770.363 853.94 769.935 853.789 769.185 853.713 768.813 853.381 768.572 853.069 768.424 852.685 768.243 852.47 767.839 852.525 767.402 852.77 765.457 853.859 760.407 857.537 758.122 858.889 758.159 859.915 758.148 860.344 758.079 862.02 757.811 862.219 764.7 865.087 767.18 865.919 767.902 865.453 768.913 866.591 769.024 867.238 769.089 867.111 769.413 867.416 770.011 867.719 770.611 871.4 770.772 871.875 769.848 872.25 769.113 871.827 768.285 870.602 767.885 870.036 767.7 869.549 767.504 869.325 767.028 865.668 759.253 868.427 754.905 867.679 750.492 867.428 749.023 868.009 747.653 872.084 746.045 874.331 746.688 875.544 744.76 875.819 743.956 876.161 743.688 876.654 742.832 876.452 742.671 876.095 742.458 874.383 740.745 873.545 739.138 872.861 737.826 872.525 737.547 871.542 737.256 871.143 737.136 870.91 736.736 871.001 736.313 871.219 735.276 871.058 734.117 870.738 733.3 869.28 733.711 868.179 736.671 867.477 736.78 866.775 736.886 864.125 737.96 862.667 739.567 861.209 741.173 858.526 741.473 856.515 741.054 851.787 740.069 838.223 738.734 831.344 741.069L831.405 741.01C831.405 741.01 828.734 742.054 825.751 740.947 820.93 739.16 816.286 729.519 820.933 727.537 822.745 726.765 823.664 728.765 824.629 727.335 825.137 726.583 823.852 724.483 820.905 724.5ZM96 178 1040 178 1040 1122 96 1122Z" fill-rule="evenodd" clip-rule="evenodd"/></clipPath><clipPath id="clip7"><rect x="-1.01691" y="1.83081" width="103.353" height="85.67"/></clipPath></defs><g transform="translate(-96 -178)"><g><path d="M111 649.5C111 396.278 316.054 191 569 191 821.946 191 1027 396.278 1027 649.5 1027 902.722 821.946 1108 569 1108 316.054 1108 111 902.722 111 649.5Z" fill="url(#fill2)" fill-rule="evenodd"/><path d="M111.5 650C111.5 396.777 316.553 191.5 569.5 191.5 822.446 191.5 1027.5 396.777 1027.5 650 1027.5 903.223 822.446 1108.5 569.5 1108.5 316.553 1108.5 111.5 903.223 111.5 650Z" stroke="#EEECE1" stroke-width="22.9167" stroke-linecap="butt" stroke-linejoin="miter" stroke-miterlimit="4" stroke-opacity="1" fill="none" fill-rule="evenodd"/><path d="M345.032 685 260 777 878 777 792.939 685 345.032 685Z" fill="url(#fill3)" fill-rule="evenodd"/><rect x="260" y="777" width="619" height="91.0001" fill="#C3BD9B" fill-opacity="1"/><path d="M344.032 535 259 626 877 626 791.939 535 344.032 535Z" fill="url(#fill4)" fill-rule="evenodd"/><g clip-path="url(#clip5)" filter="url(#fx0)" transform="translate(240 606)"><g><g><rect x="19.9999" y="19.9999" width="618" height="92.0001" fill="#2B4D6B" fill-opacity="1"/></g></g></g><rect x="260" y="626" width="618" height="92.0001" fill="#2B4D6B" fill-opacity="1"/><g clip-path="url(#clip6)"><g clip-path="url(#clip7)" filter="url(#fx1)" transform="translate(794 712)"><g><g><path d="M26.9054 21.6668C26.4819 21.669 26.0282 21.7125 25.5411 21.8103 22.2319 22.482 17.3164 29.5273 28.0911 40.468 30.2328 42.194 29.1196 44.12 28.9744 45.2916 28.7959 45.9981 28.6991 46.7437 28.6477 47.5393 28.4965 49.7979 26.5847 51.9782 24.912 53.6194 24.67 53.8564 24.5066 54.1651 24.4219 54.4955 23.7171 57.2562 23.8533 60.7625 23.9531 62.2146 24.0589 63.7689 21.8568 63.3689 24.1769 66.6209 24.8212 67.5209 26.9417 66.4492 26.6725 64.9493 26.4063 63.4493 28.3271 57.2997 30.1965 56.5497 31.5274 56.0171 33.8264 55.5911 35.0454 55.3911 34.7732 57.1127 34.0502 59.6169 34.7187 60.6212 39.0443 68.6034 41.3402 67.4752 43.1037 67.5296 44.8673 67.5839 44.8128 66.997 44.8128 66.3557 44.8128 65.7123 43.3155 65.0688 42.3536 65.1753 41.3947 65.2819 38.6723 61.6951 40.4358 60.5169 41.7909 59.6104 45.0729 55.4107 46.5158 53.5173 47.626 53.489 48.718 53.5673 49.695 53.8216 51.2861 54.2346 53.7332 54.5737 56.2742 54.8215 56.25 56.9562 56.1441 60.1234 55.6843 61.2103 55.1035 62.582 55.3637 63.8059 55.5542 64.371 55.6389 64.6232 55.645 64.9014 55.5875 65.171 55.3667 66.2209 55.0854 67.5296 56.985 67.5296 59.2295 67.5296 59.9403 67.1013 59.7891 66.3514 59.7135 65.9797 59.3807 65.7384 59.0692 65.5905 58.685 65.4101 58.4702 65.0058 58.5247 64.5689 58.7697 62.6233 59.8587 57.5736 63.537 55.2889 64.8891 55.3259 65.9145 55.315 66.3441 55.2454 68.0199 54.9781 68.2195 61.8668 71.0871 64.3471 71.919 65.0688 71.4531 66.0796 72.5905 66.1905 73.2378 66.2557 73.1108 66.5796 73.4163 67.1774 73.7188 67.7774 77.4001 67.9382 77.875 67.0144 78.2501 66.2796 77.8266 65.4514 76.6015 65.0514 76.0359 64.8667 75.5489 64.671 75.325 64.195 71.6679 56.4193 74.4266 52.0717 73.6795 47.6589 73.4284 46.1894 74.0092 44.8199 78.0837 43.2113 80.3312 43.8547 81.5442 41.9266 81.8195 41.1223 82.1613 40.8549 82.6543 39.9984 82.4517 39.8376 82.0947 39.6245 80.3826 37.9116 79.5447 36.3052 78.8611 34.9922 78.5254 34.7139 77.5423 34.4226 77.143 34.3031 76.9101 33.9031 77.0008 33.4792 77.2186 32.4423 77.0583 31.2837 76.7376 30.4663 75.2796 30.8772 74.1786 33.8379 73.4768 33.9466 72.775 34.0531 70.1252 35.127 68.6672 36.7334 67.2092 38.3398 64.5261 38.6398 62.5145 38.2203 57.7866 37.2355 44.2229 35.9008 37.3443 38.2355L37.4048 38.1768C37.4048 38.1768 34.7338 39.2202 31.7513 38.1138 26.9296 36.3269 22.2864 26.6861 26.9326 24.7036 28.7445 23.9319 29.6641 25.9318 30.629 24.5014 31.1372 23.7493 29.8516 21.6494 26.9054 21.6668Z" stroke="#535860" stroke-width="3" stroke-linecap="butt" stroke-linejoin="miter" stroke-miterlimit="4" stroke-opacity="1" fill="#535860" fill-rule="evenodd" fill-opacity="1"/></g></g></g></g><path d="M820.905 724.5C820.482 724.502 820.028 724.546 819.541 724.644 816.232 725.315 811.316 732.361 822.091 743.301 824.233 745.027 823.12 746.953 822.974 748.125 822.796 748.831 822.699 749.577 822.648 750.373 822.496 752.631 820.585 754.812 818.912 756.453 818.67 756.69 818.507 756.998 818.422 757.329 817.717 760.09 817.853 763.596 817.953 765.048 818.059 766.602 815.857 766.202 818.177 769.454 818.821 770.354 820.942 769.282 820.672 767.783 820.406 766.283 822.327 760.133 824.196 759.383 825.527 758.85 827.826 758.424 829.045 758.224 828.773 759.946 828.05 762.45 828.719 763.455 833.044 771.437 835.34 770.309 837.104 770.363 838.867 770.417 838.813 769.83 838.813 769.189 838.813 768.546 837.315 767.902 836.354 768.009 835.395 768.115 832.672 764.528 834.436 763.35 835.791 762.444 839.073 758.244 840.516 756.351 841.626 756.322 842.718 756.401 843.695 756.655 845.286 757.068 847.733 757.407 850.274 757.655 850.25 759.79 850.144 762.957 849.684 764.044 849.104 765.415 849.364 766.639 849.554 767.204 849.639 767.456 849.645 767.735 849.588 768.004 849.367 769.054 849.085 770.363 850.985 770.363 853.229 770.363 853.94 769.935 853.789 769.185 853.714 768.813 853.381 768.572 853.069 768.424 852.685 768.243 852.47 767.839 852.525 767.402 852.77 765.457 853.859 760.407 857.537 758.122 858.889 758.159 859.915 758.148 860.344 758.079 862.02 757.811 862.219 764.7 865.087 767.18 865.919 767.902 865.453 768.913 866.591 769.024 867.238 769.089 867.111 769.413 867.416 770.011 867.719 770.611 871.4 770.772 871.875 769.848 872.25 769.113 871.827 768.285 870.602 767.885 870.036 767.7 869.549 767.504 869.325 767.028 865.668 759.253 868.427 754.905 867.679 750.492 867.428 749.023 868.009 747.653 872.084 746.045 874.331 746.688 875.544 744.76 875.819 743.956 876.161 743.688 876.654 742.832 876.452 742.671 876.095 742.458 874.383 740.745 873.545 739.138 872.861 737.826 872.525 737.547 871.542 737.256 871.143 737.136 870.91 736.736 871.001 736.313 871.219 735.276 871.058 734.117 870.738 733.3 869.28 733.711 868.179 736.671 867.477 736.78 866.775 736.886 864.125 737.96 862.667 739.567 861.209 741.173 858.526 741.473 856.515 741.054 851.787 740.069 838.223 738.734 831.344 741.069L831.405 741.01C831.405 741.01 828.734 742.054 825.751 740.947 820.93 739.16 816.286 729.519 820.933 727.537 822.745 726.765 823.664 728.765 824.629 727.335 825.137 726.583 823.852 724.483 820.905 724.5Z" stroke="#535860" stroke-width="3.4375" stroke-linecap="butt" stroke-linejoin="miter" stroke-miterlimit="4" stroke-opacity="1" fill="#535860" fill-rule="evenodd" fill-opacity="1"/></g></g></svg>