<svg width="944" height="944" xmlns="http://www.w3.org/2000/svg" xmlns:xlink="http://www.w3.org/1999/xlink" xml:space="preserve" overflow="hidden"><defs><filter id="fx0" x="-10%" y="-10%" width="120%" height="120%" filterUnits="userSpaceOnUse" primitiveUnits="userSpaceOnUse"><feComponentTransfer color-interpolation-filters="sRGB"><feFuncR type="discrete" tableValues="0.000000 0.000000"/><feFuncG type="discrete" tableValues="0.000000 0.000000"/><feFuncB type="discrete" tableValues="0.000000 0.000000"/><feFuncA type="linear" slope="0.250980" intercept="0.000000"/></feComponentTransfer><feGaussianBlur stdDeviation="6.111111 6.111111"/></filter><filter id="fx1" x="-10%" y="-10%" width="120%" height="120%" filterUnits="userSpaceOnUse" primitiveUnits="userSpaceOnUse"><feComponentTransfer color-interpolation-filters="sRGB"><feFuncR type="discrete" tableValues="0.000000 0.000000"/><feFuncG type="discrete" tableValues="0.000000 0.000000"/><feFuncB type="discrete" tableValues="0.000000 0.000000"/><feFuncA type="linear" slope="0.250980" intercept="0.000000"/></feComponentTransfer><feGaussianBlur stdDeviation="6.111111 6.111111"/></filter><linearGradient x1="1027" y1="2373" x2="111" y2="1457" gradientUnits="userSpaceOnUse" spreadMethod="reflect" id="fill2"><stop offset="0" stop-color="#122635" stop-opacity="1"/><stop offset="0.0384615" stop-color="#122736" stop-opacity="1"/><stop offset="0.0769231" stop-color="#132838" stop-opacity="1"/><stop offset="0.115385" stop-color="#14293A" stop-opacity="1"/><stop offset="0.153846" stop-color="#152B3C" stop-opacity="1"/><stop offset="0.192308" stop-color="#152C3D" stop-opacity="1"/><stop offset="0.230769" stop-color="#162D3F" stop-opacity="1"/><stop offset="0.269231" stop-color="#172E41" stop-opacity="1"/><stop offset="0.307692" stop-color="#172F42" stop-opacity="1"/><stop offset="0.346154" stop-color="#183043" stop-opacity="1"/><stop offset="0.384615" stop-color="#193145" stop-opacity="1"/><stop offset="0.423077" stop-color="#193246" stop-opacity="1"/><stop offset="0.461538" stop-color="#1A3347" stop-opacity="1"/><stop offset="0.5" stop-color="#1A3348" stop-opacity="1"/><stop offset="0.538462" stop-color="#1B3449" stop-opacity="1"/><stop offset="0.576923" stop-color="#1B354A" stop-opacity="1"/><stop offset="0.615385" stop-color="#1B354B" stop-opacity="1"/><stop offset="0.653846" stop-color="#1C364C" stop-opacity="1"/><stop offset="0.692308" stop-color="#1C364D" stop-opacity="1"/><stop offset="0.730769" stop-color="#1C374D" stop-opacity="1"/><stop offset="0.769231" stop-color="#1D374E" stop-opacity="1"/><stop offset="0.807692" stop-color="#1D384E" stop-opacity="1"/><stop offset="0.846154" stop-color="#1D384F" stop-opacity="1"/><stop offset="0.884615" stop-color="#1D384F" stop-opacity="1"/><stop offset="0.923077" stop-color="#1D384F" stop-opacity="1"/><stop offset="0.961538" stop-color="#1D384F" stop-opacity="1"/><stop offset="1" stop-color="#1E3950" stop-opacity="1"/></linearGradient><linearGradient x1="569" y1="2042" x2="569" y2="1951" gradientUnits="userSpaceOnUse" spreadMethod="reflect" id="fill3"><stop offset="0" stop-color="#C3BD9B" stop-opacity="1"/><stop offset="0.2405" stop-color="#D9D5BF" stop-opacity="1"/><stop offset="1" stop-color="#EEEDE2" stop-opacity="1"/></linearGradient><linearGradient x1="568" y1="1892" x2="568" y2="1800" gradientUnits="userSpaceOnUse" spreadMethod="reflect" id="fill4"><stop offset="0" stop-color="#2B4D6B" stop-opacity="1"/><stop offset="0.0121951" stop-color="#2C4E6C" stop-opacity="1"/><stop offset="0.0243902" stop-color="#2E506E" stop-opacity="1"/><stop offset="0.0365854" stop-color="#30526F" stop-opacity="1"/><stop offset="0.0487805" stop-color="#315471" stop-opacity="1"/><stop offset="0.0609756" stop-color="#335673" stop-opacity="1"/><stop offset="0.0731707" stop-color="#355874" stop-opacity="1"/><stop offset="0.0853659" stop-color="#375976" stop-opacity="1"/><stop offset="0.097561" stop-color="#385B77" stop-opacity="1"/><stop offset="0.109756" stop-color="#3A5D79" stop-opacity="1"/><stop offset="0.121951" stop-color="#3B5E7A" stop-opacity="1"/><stop offset="0.134146" stop-color="#3D607C" stop-opacity="1"/><stop offset="0.146341" stop-color="#3F627D" stop-opacity="1"/><stop offset="0.158537" stop-color="#40637F" stop-opacity="1"/><stop offset="0.170732" stop-color="#426580" stop-opacity="1"/><stop offset="0.182927" stop-color="#436782" stop-opacity="1"/><stop offset="0.195122" stop-color="#456883" stop-opacity="1"/><stop offset="0.207317" stop-color="#466A84" stop-opacity="1"/><stop offset="0.219512" stop-color="#476B86" stop-opacity="1"/><stop offset="0.231707" stop-color="#496D87" stop-opacity="1"/><stop offset="0.243902" stop-color="#4A6E88" stop-opacity="1"/><stop offset="0.256098" stop-color="#4C708A" stop-opacity="1"/><stop offset="0.268293" stop-color="#4D718B" stop-opacity="1"/><stop offset="0.280488" stop-color="#4E738C" stop-opacity="1"/><stop offset="0.292683" stop-color="#50748D" stop-opacity="1"/><stop offset="0.304878" stop-color="#51768F" stop-opacity="1"/><stop offset="0.317073" stop-color="#527790" stop-opacity="1"/><stop offset="0.329268" stop-color="#547891" stop-opacity="1"/><stop offset="0.341463" stop-color="#557A92" stop-opacity="1"/><stop offset="0.353659" stop-color="#567B93" stop-opacity="1"/><stop offset="0.365854" stop-color="#577C94" stop-opacity="1"/><stop offset="0.378049" stop-color="#587D96" stop-opacity="1"/><stop offset="0.390244" stop-color="#5A7F97" stop-opacity="1"/><stop offset="0.402439" stop-color="#5B8098" stop-opacity="1"/><stop offset="0.414634" stop-color="#5C8199" stop-opacity="1"/><stop offset="0.426829" stop-color="#5D829A" stop-opacity="1"/><stop offset="0.439024" stop-color="#5E839B" stop-opacity="1"/><stop offset="0.451219" stop-color="#5F859C" stop-opacity="1"/><stop offset="0.463415" stop-color="#60869D" stop-opacity="1"/><stop offset="0.47561" stop-color="#61879E" stop-opacity="1"/><stop offset="0.487805" stop-color="#62889F" stop-opacity="1"/><stop offset="0.5" stop-color="#6389A0" stop-opacity="1"/><stop offset="0.512195" stop-color="#648AA0" stop-opacity="1"/><stop offset="0.52439" stop-color="#658BA1" stop-opacity="1"/><stop offset="0.536585" stop-color="#668CA2" stop-opacity="1"/><stop offset="0.548781" stop-color="#678DA3" stop-opacity="1"/><stop offset="0.560976" stop-color="#688EA4" stop-opacity="1"/><stop offset="0.573171" stop-color="#698FA5" stop-opacity="1"/><stop offset="0.585366" stop-color="#6A90A5" stop-opacity="1"/><stop offset="0.597561" stop-color="#6A90A6" stop-opacity="1"/><stop offset="0.609756" stop-color="#6B91A7" stop-opacity="1"/><stop offset="0.621951" stop-color="#6C92A8" stop-opacity="1"/><stop offset="0.634146" stop-color="#6D93A8" stop-opacity="1"/><stop offset="0.646341" stop-color="#6D94A9" stop-opacity="1"/><stop offset="0.658537" stop-color="#6E94AA" stop-opacity="1"/><stop offset="0.670732" stop-color="#6F95AA" stop-opacity="1"/><stop offset="0.682927" stop-color="#6F96AB" stop-opacity="1"/><stop offset="0.695122" stop-color="#7097AC" stop-opacity="1"/><stop offset="0.707317" stop-color="#7197AC" stop-opacity="1"/><stop offset="0.719512" stop-color="#7198AD" stop-opacity="1"/><stop offset="0.731707" stop-color="#7298AD" stop-opacity="1"/><stop offset="0.743902" stop-color="#7299AE" stop-opacity="1"/><stop offset="0.756098" stop-color="#739AAE" stop-opacity="1"/><stop offset="0.768293" stop-color="#739AAF" stop-opacity="1"/><stop offset="0.780488" stop-color="#749BAF" stop-opacity="1"/><stop offset="0.792683" stop-color="#749BB0" stop-opacity="1"/><stop offset="0.804878" stop-color="#759CB0" stop-opacity="1"/><stop offset="0.817073" stop-color="#759CB0" stop-opacity="1"/><stop offset="0.829268" stop-color="#769CB1" stop-opacity="1"/><stop offset="0.841463" stop-color="#769DB1" stop-opacity="1"/><stop offset="0.853659" stop-color="#769DB2" stop-opacity="1"/><stop offset="0.865854" stop-color="#779EB2" stop-opacity="1"/><stop offset="0.878049" stop-color="#779EB2" stop-opacity="1"/><stop offset="0.890244" stop-color="#779EB2" stop-opacity="1"/><stop offset="0.902439" stop-color="#789EB3" stop-opacity="1"/><stop offset="0.914634" stop-color="#789FB3" stop-opacity="1"/><stop offset="0.926829" stop-color="#789FB3" stop-opacity="1"/><stop offset="0.939024" stop-color="#789FB3" stop-opacity="1"/><stop offset="0.951219" stop-color="#789FB3" stop-opacity="1"/><stop offset="0.963415" stop-color="#789FB3" stop-opacity="1"/><stop offset="0.97561" stop-color="#789FB3" stop-opacity="1"/><stop offset="0.987805" stop-color="#789FB3" stop-opacity="1"/><stop offset="1" stop-color="#79A0B4" stop-opacity="1"/></linearGradient><clipPath id="clip5"><rect x="1.66653" y="1.66663" width="654.667" height="128.667"/></clipPath><clipPath id="clip6"><path d="M820.905 1990.5C820.482 1990.5 820.028 1990.55 819.541 1990.64 816.232 1991.32 811.316 1998.36 822.091 2009.3 824.233 2011.03 823.12 2012.95 822.974 2014.12 822.796 2014.83 822.699 2015.58 822.648 2016.37 822.496 2018.63 820.585 2020.81 818.912 2022.45 818.67 2022.69 818.507 2023 818.422 2023.33 817.717 2026.09 817.853 2029.6 817.953 2031.05 818.059 2032.6 815.857 2032.2 818.177 2035.45 818.821 2036.35 820.942 2035.28 820.672 2033.78 820.406 2032.28 822.327 2026.13 824.196 2025.38 825.527 2024.85 827.826 2024.42 829.045 2024.22 828.773 2025.95 828.05 2028.45 828.719 2029.45 833.044 2037.44 835.34 2036.31 837.104 2036.36 838.867 2036.42 838.813 2035.83 838.813 2035.19 838.813 2034.55 837.315 2033.9 836.354 2034.01 835.395 2034.12 832.672 2030.53 834.436 2029.35 835.791 2028.44 839.073 2024.24 840.516 2022.35 841.626 2022.32 842.718 2022.4 843.695 2022.65 845.286 2023.07 847.733 2023.41 850.274 2023.65 850.25 2025.79 850.144 2028.96 849.684 2030.04 849.104 2031.42 849.364 2032.64 849.554 2033.2 849.639 2033.46 849.645 2033.73 849.588 2034 849.367 2035.05 849.085 2036.36 850.985 2036.36 853.229 2036.36 853.94 2035.93 853.789 2035.18 853.713 2034.81 853.381 2034.57 853.069 2034.42 852.685 2034.24 852.47 2033.84 852.525 2033.4 852.77 2031.46 853.859 2026.41 857.537 2024.12 858.889 2024.16 859.915 2024.15 860.344 2024.08 862.02 2023.81 862.219 2030.7 865.087 2033.18 865.919 2033.9 865.453 2034.91 866.591 2035.02 867.238 2035.09 867.111 2035.41 867.416 2036.01 867.719 2036.61 871.4 2036.77 871.875 2035.85 872.25 2035.11 871.827 2034.28 870.602 2033.88 870.036 2033.7 869.549 2033.5 869.325 2033.03 865.668 2025.25 868.427 2020.91 867.679 2016.49 867.428 2015.02 868.009 2013.65 872.084 2012.04 874.331 2012.69 875.544 2010.76 875.819 2009.96 876.161 2009.69 876.654 2008.83 876.452 2008.67 876.095 2008.46 874.383 2006.74 873.545 2005.14 872.861 2003.83 872.525 2003.55 871.542 2003.26 871.143 2003.14 870.91 2002.74 871.001 2002.31 871.219 2001.28 871.058 2000.12 870.738 1999.3 869.28 1999.71 868.179 2002.67 867.477 2002.78 866.775 2002.89 864.125 2003.96 862.667 2005.57 861.209 2007.17 858.526 2007.47 856.515 2007.05 851.787 2006.07 838.223 2004.73 831.344 2007.07L831.405 2007.01C831.405 2007.01 828.734 2008.05 825.751 2006.95 820.93 2005.16 816.286 1995.52 820.933 1993.54 822.745 1992.77 823.664 1994.77 824.629 1993.33 825.137 1992.58 823.852 1990.48 820.905 1990.5ZM96 1443 1040 1443 1040 2387 96 2387Z" fill-rule="evenodd" clip-rule="evenodd"/></clipPath><clipPath id="clip7"><rect x="-1.01691" y="1.83081" width="103.353" height="85.6699"/></clipPath></defs><g transform="translate(-96 -1443)"><g><path d="M111 1915C111 1662.05 316.054 1457 569 1457 821.946 1457 1027 1662.05 1027 1915 1027 2167.95 821.946 2373 569 2373 316.054 2373 111 2167.95 111 1915Z" fill="url(#fill2)" fill-rule="evenodd"/><path d="M111.5 1915.5C111.5 1662.55 316.553 1457.5 569.5 1457.5 822.446 1457.5 1027.5 1662.55 1027.5 1915.5 1027.5 2168.45 822.446 2373.5 569.5 2373.5 316.553 2373.5 111.5 2168.45 111.5 1915.5Z" stroke="#122635" stroke-width="22.9167" stroke-linecap="butt" stroke-linejoin="miter" stroke-miterlimit="4" stroke-opacity="1" fill="none" fill-rule="evenodd"/><path d="M345.032 1951 260 2042 878 2042 792.939 1951 345.032 1951Z" fill="url(#fill3)" fill-rule="evenodd"/><rect x="260" y="2042" width="619" height="92.0001" fill="#C3BD9B" fill-opacity="1"/><path d="M344.032 1800 259 1892 877 1892 791.939 1800 344.032 1800Z" fill="url(#fill4)" fill-rule="evenodd"/><g clip-path="url(#clip5)" filter="url(#fx0)" transform="translate(240 1872)"><g><g><rect x="19.9999" y="20" width="618" height="92.0001" fill="#2B4D6B" fill-opacity="1"/></g></g></g><rect x="260" y="1892" width="618" height="92.0001" fill="#2B4D6B" fill-opacity="1"/><g clip-path="url(#clip6)"><g clip-path="url(#clip7)" filter="url(#fx1)" transform="translate(794 1978)"><g><g><path d="M26.9054 21.6669C26.4819 21.669 26.0282 21.7125 25.5411 21.8103 22.2319 22.482 17.3164 29.5273 28.0911 40.468 30.2328 42.194 29.1196 44.12 28.9744 45.2917 28.7959 45.9982 28.6991 46.7438 28.6477 47.5394 28.4965 49.798 26.5847 51.9783 24.912 53.6195 24.67 53.8564 24.5066 54.1651 24.4219 54.4955 23.7171 57.2563 23.8533 60.7626 23.9531 62.2147 24.0589 63.769 21.8568 63.369 24.1769 66.621 24.8212 67.5209 26.9417 66.4492 26.6725 64.9493 26.4063 63.4494 28.3271 57.2997 30.1965 56.5498 31.5274 56.0172 33.8264 55.5911 35.0454 55.3911 34.7732 57.1128 34.0502 59.617 34.7187 60.6213 39.0443 68.6035 41.3402 67.4753 43.1037 67.5296 44.8673 67.584 44.8128 66.997 44.8128 66.3558 44.8128 65.7123 43.3155 65.0689 42.3536 65.1754 41.3947 65.2819 38.6723 61.6952 40.4358 60.517 41.7909 59.6105 45.0729 55.4107 46.5158 53.5173 47.626 53.4891 48.718 53.5673 49.695 53.8217 51.2861 54.2347 53.7332 54.5738 56.2742 54.8216 56.25 56.9563 56.1441 60.1235 55.6843 61.2104 55.1035 62.5821 55.3637 63.8059 55.5542 64.3711 55.6389 64.6233 55.645 64.9015 55.5875 65.1711 55.3667 66.221 55.0854 67.5296 56.985 67.5296 59.2295 67.5296 59.9403 67.1014 59.7891 66.3514 59.7135 65.9797 59.3807 65.7384 59.0692 65.5906 58.685 65.4102 58.4702 65.0058 58.5247 64.5689 58.7697 62.6234 59.8587 57.5736 63.537 55.289 64.8891 55.3259 65.9145 55.3151 66.3441 55.2455 68.0199 54.9781 68.2195 61.8669 71.0871 64.3472 71.919 65.0689 71.4531 66.0797 72.5905 66.1906 73.2378 66.2558 73.1108 66.5797 73.4163 67.1775 73.7188 67.7774 77.4001 67.9383 77.875 67.0144 78.2501 66.2797 77.8266 65.4515 76.6015 65.0515 76.0359 64.8667 75.5489 64.6711 75.325 64.195 71.6679 56.4194 74.4266 52.0718 73.6795 47.659 73.4284 46.1895 74.0092 44.82 78.0837 43.2114 80.3312 43.8548 81.5442 41.9267 81.8195 41.1223 82.1613 40.855 82.6543 39.9985 82.4517 39.8376 82.0947 39.6246 80.3826 37.9117 79.5447 36.3052 78.8611 34.9922 78.5254 34.714 77.5423 34.4227 77.143 34.3031 76.9101 33.9032 77.0008 33.4793 77.2186 32.4424 77.0583 31.2837 76.7376 30.4664 75.2796 30.8772 74.1786 33.838 73.4768 33.9466 72.775 34.0532 70.1252 35.127 68.6672 36.7335 67.2092 38.3399 64.5261 38.6399 62.5145 38.2203 57.7866 37.2356 44.2229 35.9009 37.3443 38.2355L37.4048 38.1769C37.4048 38.1769 34.7338 39.2203 31.7513 38.1138 26.9296 36.327 22.2864 26.6862 26.9326 24.7037 28.7445 23.932 29.6641 25.9319 30.629 24.5015 31.1372 23.7494 29.8516 21.6495 26.9054 21.6669Z" stroke="#535860" stroke-width="3" stroke-linecap="butt" stroke-linejoin="miter" stroke-miterlimit="4" stroke-opacity="1" fill="#535860" fill-rule="evenodd" fill-opacity="1"/></g></g></g></g><path d="M820.905 1990.5C820.482 1990.5 820.028 1990.55 819.541 1990.64 816.232 1991.32 811.316 1998.36 822.091 2009.3 824.233 2011.03 823.12 2012.95 822.974 2014.12 822.796 2014.83 822.699 2015.58 822.648 2016.37 822.496 2018.63 820.585 2020.81 818.912 2022.45 818.67 2022.69 818.507 2023 818.422 2023.33 817.717 2026.09 817.853 2029.6 817.953 2031.05 818.059 2032.6 815.857 2032.2 818.177 2035.45 818.821 2036.35 820.942 2035.28 820.672 2033.78 820.406 2032.28 822.327 2026.13 824.196 2025.38 825.527 2024.85 827.826 2024.42 829.045 2024.22 828.773 2025.95 828.05 2028.45 828.719 2029.45 833.044 2037.44 835.34 2036.31 837.104 2036.36 838.867 2036.42 838.813 2035.83 838.813 2035.19 838.813 2034.55 837.315 2033.9 836.354 2034.01 835.395 2034.12 832.672 2030.53 834.436 2029.35 835.791 2028.44 839.073 2024.24 840.516 2022.35 841.626 2022.32 842.718 2022.4 843.695 2022.65 845.286 2023.07 847.733 2023.41 850.274 2023.65 850.25 2025.79 850.144 2028.96 849.684 2030.04 849.104 2031.42 849.364 2032.64 849.554 2033.2 849.639 2033.46 849.645 2033.73 849.588 2034 849.367 2035.05 849.085 2036.36 850.985 2036.36 853.229 2036.36 853.94 2035.93 853.789 2035.18 853.714 2034.81 853.381 2034.57 853.069 2034.42 852.685 2034.24 852.47 2033.84 852.525 2033.4 852.77 2031.46 853.859 2026.41 857.537 2024.12 858.889 2024.16 859.915 2024.15 860.344 2024.08 862.02 2023.81 862.219 2030.7 865.087 2033.18 865.919 2033.9 865.453 2034.91 866.591 2035.02 867.238 2035.09 867.111 2035.41 867.416 2036.01 867.719 2036.61 871.4 2036.77 871.875 2035.85 872.25 2035.11 871.827 2034.28 870.602 2033.88 870.036 2033.7 869.549 2033.5 869.325 2033.03 865.668 2025.25 868.427 2020.91 867.679 2016.49 867.428 2015.02 868.009 2013.65 872.084 2012.04 874.331 2012.69 875.544 2010.76 875.819 2009.96 876.161 2009.69 876.654 2008.83 876.452 2008.67 876.095 2008.46 874.383 2006.74 873.545 2005.14 872.861 2003.83 872.525 2003.55 871.542 2003.26 871.143 2003.14 870.91 2002.74 871.001 2002.31 871.219 2001.28 871.058 2000.12 870.738 1999.3 869.28 1999.71 868.179 2002.67 867.477 2002.78 866.775 2002.89 864.125 2003.96 862.667 2005.57 861.209 2007.17 858.526 2007.47 856.515 2007.05 851.787 2006.07 838.223 2004.73 831.344 2007.07L831.405 2007.01C831.405 2007.01 828.734 2008.05 825.751 2006.95 820.93 2005.16 816.286 1995.52 820.933 1993.54 822.745 1992.77 823.664 1994.77 824.629 1993.33 825.137 1992.58 823.852 1990.48 820.905 1990.5Z" stroke="#535860" stroke-width="3.4375" stroke-linecap="butt" stroke-linejoin="miter" stroke-miterlimit="4" stroke-opacity="1" fill="#535860" fill-rule="evenodd" fill-opacity="1"/></g></g></svg>